<svg width="63" height="62" viewBox="0 0 63 62" fill="none" xmlns="http://www.w3.org/2000/svg">
<path d="M0.666687 31C0.666687 13.8792 14.5459 0 31.6667 0V0C48.7875 0 62.6667 13.8792 62.6667 31V31C62.6667 48.1208 48.7875 62 31.6667 62V62C14.5459 62 0.666687 48.1208 0.666687 31V31Z" fill="#FAFAFA"/>
<g clip-path="url(#clip0_44_388)">
<path d="M31.6667 19.375C25.2566 19.375 20.0417 24.5899 20.0417 31C20.0417 37.4101 25.2566 42.625 31.6667 42.625C38.0767 42.625 43.2917 37.4101 43.2917 31C43.2917 24.5899 38.0767 19.375 31.6667 19.375ZM39.3528 24.7359C40.7357 26.4256 41.5732 28.5776 41.595 30.9213C41.2677 30.8521 37.9848 30.1862 34.6809 30.6017C34.4113 29.9435 34.1568 29.3645 33.8082 28.651C37.4795 27.1521 39.1434 25.0191 39.3528 24.7359V24.7359ZM38.2489 23.5877C38.0703 23.842 36.5756 25.8511 33.0448 27.1745C31.4177 24.185 29.6143 21.7291 29.3398 21.3616C32.4887 20.6026 35.807 21.4211 38.2489 23.5877V23.5877ZM27.4452 22.0291C27.707 22.3881 29.4813 24.847 31.1266 27.7717C26.4819 29.0051 22.391 28.9873 21.9469 28.9815C22.5907 25.9002 24.6672 23.3394 27.4452 22.0291ZM21.7372 31.0151C21.7372 30.9136 21.7392 30.8125 21.7422 30.7117C22.1767 30.7206 26.9885 30.7826 31.9472 29.2986C32.2314 29.8549 32.503 30.4196 32.7522 30.9837C29.1616 31.9951 25.8994 34.8991 24.2898 37.6543C22.7039 35.894 21.7372 33.5655 21.7372 31.0151ZM25.5719 38.8486C26.6091 36.7283 29.424 33.9913 33.4271 32.6256C34.8212 36.2483 35.3977 39.2844 35.5454 40.1555C32.3526 41.5155 28.5134 41.1424 25.5719 38.8486V38.8486ZM37.2147 39.2465C37.1129 38.6425 36.5844 35.7357 35.2857 32.1668C38.3972 31.6687 41.131 32.4841 41.4707 32.5913C41.0281 35.3541 39.4423 37.7402 37.2147 39.2465Z" fill="url(#paint0_linear_44_388)"/>
</g>
<defs>
<linearGradient id="paint0_linear_44_388" x1="20.0417" y1="17.8304" x2="43.2917" y2="44.8199" gradientUnits="userSpaceOnUse">
<stop offset="0.0271195" stop-color="#6C48D3"/>
<stop offset="0.287564" stop-color="#4D4DE2"/>
<stop offset="0.808912" stop-color="#3778FC"/>
<stop offset="0.967351" stop-color="#0370FF"/>
</linearGradient>
<clipPath id="clip0_44_388">
<rect width="24" height="24" fill="white" transform="translate(19.6667 19)"/>
</clipPath>
</defs>
</svg>
