<svg width="63" height="62" viewBox="0 0 63 62" fill="none" xmlns="http://www.w3.org/2000/svg">
<path d="M0.333313 31C0.333313 13.8792 14.2125 0 31.3333 0V0C48.4541 0 62.3333 13.8792 62.3333 31V31C62.3333 48.1208 48.4541 62 31.3333 62V62C14.2125 62 0.333313 48.1208 0.333313 31V31Z" fill="#FAFAFA"/>
<g clip-path="url(#clip0_44_389)">
<path d="M27.5263 37.6281C27.5263 37.7219 27.4196 37.7969 27.2851 37.7969C27.1321 37.8109 27.0255 37.7359 27.0255 37.6281C27.0255 37.5344 27.1321 37.4594 27.2666 37.4594C27.4057 37.4453 27.5263 37.5203 27.5263 37.6281ZM26.0841 37.4172C26.0517 37.5109 26.1444 37.6187 26.2835 37.6469C26.4041 37.6937 26.5432 37.6469 26.571 37.5531C26.5988 37.4594 26.5107 37.3516 26.3716 37.3094C26.2511 37.2766 26.1166 37.3234 26.0841 37.4172ZM28.1337 37.3375C27.9992 37.3703 27.9065 37.4594 27.9204 37.5672C27.9343 37.6609 28.0549 37.7219 28.194 37.6891C28.3285 37.6563 28.4212 37.5672 28.4073 37.4734C28.3934 37.3844 28.2682 37.3234 28.1337 37.3375ZM31.1849 19.375C24.7533 19.375 19.8333 24.3109 19.8333 30.8125C19.8333 36.0109 23.07 40.4594 27.6932 42.025C28.2867 42.1328 28.4954 41.7625 28.4954 41.4578C28.4954 41.1672 28.4815 39.5641 28.4815 38.5797C28.4815 38.5797 25.2355 39.2828 24.5539 37.1828C24.5539 37.1828 24.0252 35.8187 23.2648 35.4672C23.2648 35.4672 22.2029 34.7312 23.339 34.7453C23.339 34.7453 24.4936 34.8391 25.1289 35.9547C26.1444 37.7641 27.8462 37.2438 28.5093 36.9344C28.616 36.1844 28.9174 35.6641 29.2513 35.3547C26.6591 35.0641 24.0438 34.6844 24.0438 30.175C24.0438 28.8859 24.3962 28.2391 25.1382 27.4141C25.0176 27.1094 24.6234 25.8531 25.2587 24.2312C26.2279 23.9266 28.4583 25.4969 28.4583 25.4969C29.3857 25.2344 30.3827 25.0984 31.3704 25.0984C32.3581 25.0984 33.3551 25.2344 34.2825 25.4969C34.2825 25.4969 36.513 23.9219 37.4821 24.2312C38.1174 25.8578 37.7232 27.1094 37.6027 27.4141C38.3446 28.2438 38.799 28.8906 38.799 30.175C38.799 34.6984 36.0678 35.0594 33.4757 35.3547C33.9023 35.725 34.264 36.4281 34.264 37.5297C34.264 39.1094 34.25 41.0641 34.25 41.4484C34.25 41.7531 34.4634 42.1234 35.0523 42.0156C39.6894 40.4594 42.8333 36.0109 42.8333 30.8125C42.8333 24.3109 37.6166 19.375 31.1849 19.375ZM24.3406 35.5422C24.2803 35.5891 24.2942 35.6969 24.373 35.7859C24.4472 35.8609 24.5539 35.8938 24.6142 35.8328C24.6744 35.7859 24.6605 35.6781 24.5817 35.5891C24.5075 35.5141 24.4009 35.4812 24.3406 35.5422ZM23.8398 35.1625C23.8073 35.2234 23.8537 35.2984 23.9464 35.3453C24.0206 35.3922 24.1134 35.3781 24.1458 35.3125C24.1783 35.2516 24.1319 35.1766 24.0392 35.1297C23.9464 35.1016 23.8722 35.1156 23.8398 35.1625ZM25.3422 36.8312C25.268 36.8922 25.2958 37.0328 25.4025 37.1219C25.5091 37.2297 25.6436 37.2438 25.7039 37.1688C25.7642 37.1078 25.7363 36.9672 25.6436 36.8781C25.5416 36.7703 25.4025 36.7562 25.3422 36.8312ZM24.8136 36.1422C24.7394 36.1891 24.7394 36.3109 24.8136 36.4188C24.8877 36.5266 25.013 36.5734 25.0732 36.5266C25.1474 36.4656 25.1474 36.3438 25.0732 36.2359C25.0083 36.1281 24.8877 36.0813 24.8136 36.1422Z" fill="url(#paint0_linear_44_389)"/>
</g>
<defs>
<linearGradient id="paint0_linear_44_389" x1="19.8333" y1="17.869" x2="42.4515" y2="44.5084" gradientUnits="userSpaceOnUse">
<stop offset="0.0271195" stop-color="#6C48D3"/>
<stop offset="0.287564" stop-color="#4D4DE2"/>
<stop offset="0.808912" stop-color="#3778FC"/>
<stop offset="0.967351" stop-color="#0370FF"/>
</linearGradient>
<clipPath id="clip0_44_389">
<rect width="23" height="24" fill="white" transform="translate(19.8333 19)"/>
</clipPath>
</defs>
</svg>
