<svg width="155" height="175" viewBox="0 0 155 175" fill="none" xmlns="http://www.w3.org/2000/svg">
<g filter="url(#filter0_d_41_400)">
<rect x="40.3185" y="36.125" width="74.5698" height="94" rx="10" fill="#FAFAFA"/>
</g>
<g clip-path="url(#clip0_41_400)">
<path d="M96.2184 73.7863V62.9675C96.2184 61.2609 95.1025 59.8724 93.731 59.8724H60.657C59.2854 59.8724 58.1696 61.2609 58.1696 62.9675V98.3216C58.1696 100.05 59.2854 101.457 60.657 101.457H77.0144V103.724C77.0144 106.011 78.4907 107.872 80.3052 107.872H92.957C94.7716 107.872 96.2479 106.011 96.2479 103.724V74.3331C96.2479 74.1477 96.2372 73.9654 96.2184 73.7863ZM59.6571 62.9675C59.6571 62.2833 60.0963 61.7474 60.657 61.7474H93.731C94.2917 61.7474 94.7309 62.2833 94.7309 62.9675V70.842C94.3141 70.5042 93.8334 70.2814 93.3169 70.2102C93.3167 70.2102 93.3164 70.2101 93.3161 70.2101C93.2926 70.2069 93.269 70.2044 93.2453 70.2018C93.2447 70.2017 93.2441 70.2016 93.2434 70.2016V64.5196C93.2434 64.0019 92.9104 63.5821 92.4997 63.5821H61.8882C61.4775 63.5821 61.1445 64.0019 61.1445 64.5196V92.4723H59.6571V62.9675ZM77.0145 96.0162H69.5837C69.1729 96.0162 68.84 96.436 68.84 96.9537C68.84 97.4714 69.1729 97.8912 69.5837 97.8912H77.0145V99.5821H60.657C60.1057 99.5821 59.6571 99.0167 59.6571 98.3216V94.3473H77.0145V96.0162ZM77.0145 89.0855H66.4108V85.2379H77.0145V89.0855ZM77.4923 72.1823C77.492 72.1831 77.4916 72.1838 77.4912 72.1846C77.4667 72.2353 77.4434 72.287 77.4206 72.3392C77.4139 72.3545 77.4074 72.3701 77.4009 72.3856C77.3839 72.4256 77.3675 72.4661 77.3515 72.5069C77.3457 72.5217 77.3398 72.5364 77.3341 72.5513C77.3138 72.6051 77.2941 72.6595 77.2755 72.7146C77.2724 72.7236 77.2697 72.7328 77.2667 72.7419C77.2511 72.7889 77.2363 72.8363 77.2221 72.8842C77.2169 72.9015 77.212 72.9189 77.207 72.9363C77.1943 72.9809 77.1822 73.0259 77.1707 73.0712C77.1673 73.0848 77.1635 73.0982 77.1602 73.1118C77.1461 73.1696 77.1329 73.2278 77.1208 73.2866C77.1179 73.3005 77.1154 73.3144 77.1127 73.3283C77.1034 73.3749 77.0948 73.4219 77.0869 73.4691C77.0838 73.4873 77.0808 73.5055 77.0779 73.5237C77.0698 73.5752 77.0625 73.6269 77.0558 73.679C77.0546 73.6888 77.0531 73.6983 77.052 73.7081C77.0446 73.7692 77.0385 73.8309 77.0333 73.8929C77.0319 73.9096 77.0309 73.9264 77.0296 73.9432C77.026 73.9909 77.0231 74.0389 77.0209 74.0871C77.0201 74.1054 77.0191 74.1236 77.0184 74.142C77.0161 74.2054 77.0146 74.2691 77.0146 74.3332V80.2736H66.4108V72.0599H77.5538C77.5327 72.1002 77.5123 72.141 77.4923 72.1823ZM65.6671 70.1849C65.2564 70.1849 64.9234 70.6047 64.9234 71.1224V81.211C64.9234 81.7287 65.2564 82.1485 65.6671 82.1485H77.0145V83.3629H65.6671C65.2564 83.3629 64.9234 83.7828 64.9234 84.3004V90.023C64.9234 90.5407 65.2564 90.9605 65.6671 90.9605H77.0145V92.4723H62.6319V65.4571H91.7561V70.1849H65.6671ZM94.7604 103.724C94.7604 104.978 93.9514 105.997 92.9571 105.997H80.3053C79.3109 105.997 78.5019 104.978 78.5019 103.724V102.216H94.7604V103.724ZM94.7604 100.341H78.5019V77.7167H94.7604V100.341ZM94.7606 75.8416H78.5019V74.333C78.5019 73.0796 79.3109 72.0598 80.3053 72.0598H92.4998H92.9571C93.0099 72.0598 93.0622 72.0632 93.1141 72.069C93.1175 72.0693 93.121 72.0695 93.1245 72.07C93.7704 72.1472 94.3329 72.665 94.598 73.3922C94.5999 73.3976 94.6019 73.403 94.6039 73.4085C94.6233 73.4628 94.6409 73.5183 94.6569 73.5748C94.6599 73.5854 94.6626 73.5962 94.6655 73.6068C94.6802 73.6611 94.6935 73.7162 94.7049 73.7723C94.7071 73.7833 94.7089 73.7944 94.711 73.8054C94.7214 73.8603 94.7305 73.9158 94.7376 73.9723C94.7525 74.0898 94.7606 74.2102 94.7606 74.333V75.8416Z" fill="url(#paint0_linear_41_400)"/>
<path d="M90.4156 73.7679C90.406 73.708 90.3919 73.6489 90.3733 73.5918C90.3547 73.5355 90.3316 73.4811 90.3048 73.4305C90.2781 73.3788 90.2468 73.331 90.2126 73.2879C90.1784 73.2448 90.1405 73.2054 90.0996 73.1717C90.0594 73.138 90.0155 73.1088 89.9709 73.0854C89.9263 73.062 89.8795 73.0433 89.8318 73.031C89.7359 73.0067 89.637 73.0067 89.5411 73.031C89.4942 73.0433 89.4473 73.062 89.4021 73.0854C89.3574 73.1088 89.3142 73.138 89.2741 73.1717C89.2332 73.2054 89.1952 73.2448 89.161 73.2879C89.0219 73.4623 88.9431 73.7042 88.9431 73.9507C88.9431 74.0116 88.9476 74.0735 88.9572 74.1335C88.9668 74.1935 88.981 74.2526 88.9996 74.3088C89.0182 74.3659 89.0412 74.4203 89.068 74.4709C89.0955 74.5225 89.1267 74.5704 89.1609 74.6135C89.1952 74.6567 89.2331 74.696 89.274 74.7297C89.3142 74.7634 89.3573 74.7925 89.402 74.8159C89.4473 74.8394 89.4941 74.8581 89.541 74.8694C89.5893 74.8816 89.6385 74.8881 89.6868 74.8881C89.7351 74.8881 89.7843 74.8816 89.8318 74.8694C89.8794 74.8581 89.9263 74.8394 89.9708 74.8159C90.0155 74.7925 90.0594 74.7634 90.0995 74.7297C90.1404 74.696 90.1783 74.6567 90.2126 74.6135C90.2468 74.5704 90.278 74.5225 90.3048 74.4709C90.3315 74.4203 90.3546 74.3659 90.3732 74.3088C90.3918 74.2525 90.4059 74.1935 90.4156 74.1335C90.4253 74.0734 90.4296 74.0116 90.4296 73.9507C90.4296 73.8898 90.4252 73.8278 90.4156 73.7679Z" fill="url(#paint1_linear_41_400)"/>
<path d="M86.8605 73.0133H83.5758C83.1651 73.0133 82.832 73.4331 82.832 73.9508C82.832 74.4685 83.1651 74.8883 83.5758 74.8883H86.8605C87.2711 74.8883 87.6042 74.4685 87.6042 73.9508C87.6042 73.4331 87.2712 73.0133 86.8605 73.0133Z" fill="url(#paint2_linear_41_400)"/>
<path d="M87.6112 103.169H85.6512C85.2405 103.169 84.9075 103.589 84.9075 104.106C84.9075 104.624 85.2404 105.044 85.6512 105.044H87.6112C88.0218 105.044 88.3549 104.624 88.3549 104.106C88.3549 103.589 88.0218 103.169 87.6112 103.169Z" fill="url(#paint3_linear_41_400)"/>
<path d="M69.0166 76.1487L69.7922 75.171C70.0826 74.8049 70.0826 74.2112 69.7922 73.8451C69.5018 73.4791 69.0309 73.4791 68.7404 73.8451L67.4389 75.4857C67.1484 75.8518 67.1484 76.4454 67.4389 76.8116L68.7404 78.4523C68.8857 78.6353 69.076 78.7269 69.2663 78.7269C69.4566 78.7269 69.647 78.6353 69.7922 78.4523C70.0826 78.0862 70.0826 77.4926 69.7922 77.1264L69.0166 76.1487Z" fill="url(#paint4_linear_41_400)"/>
<path d="M72.1099 67.2317C72.1003 67.1716 72.0861 67.1126 72.0675 67.0564C72.049 66.9992 72.0259 66.9449 71.9991 66.8942C71.9716 66.8427 71.9411 66.7949 71.9069 66.7517C71.8727 66.7086 71.834 66.6692 71.7939 66.6355C71.753 66.6018 71.7098 66.5727 71.6652 66.5492C71.6206 66.5258 71.5737 66.5081 71.5261 66.4958C71.4302 66.4714 71.3313 66.4714 71.2353 66.4958C71.1877 66.5081 71.1409 66.5258 71.0963 66.5492C71.0516 66.5727 71.0085 66.6018 70.9676 66.6355C70.9274 66.6692 70.8888 66.7086 70.8546 66.7517C70.8203 66.7949 70.7898 66.8427 70.7623 66.8942C70.7356 66.9449 70.7125 66.9992 70.6939 67.0564C70.6753 67.1127 70.6612 67.1716 70.6515 67.2317C70.6418 67.2917 70.6366 67.3536 70.6366 67.4145C70.6366 67.4754 70.6418 67.5374 70.6515 67.5973C70.6612 67.6574 70.6753 67.7164 70.6939 67.7736C70.7125 67.8299 70.7356 67.8842 70.7623 67.9349C70.7898 67.9864 70.8203 68.0342 70.8546 68.0774C70.8888 68.1205 70.9274 68.1599 70.9676 68.1945C71.0085 68.2283 71.0516 68.2574 71.0963 68.2808C71.1409 68.3033 71.1877 68.322 71.2353 68.3334C71.2837 68.3456 71.332 68.3521 71.3811 68.3521C71.4294 68.3521 71.4778 68.3456 71.5261 68.3334C71.5737 68.3221 71.6206 68.3034 71.6652 68.2808C71.7098 68.2574 71.753 68.2283 71.7939 68.1945C71.834 68.1599 71.8727 68.1205 71.9069 68.0774C71.9411 68.0342 71.9716 67.9864 71.9991 67.9349C72.0259 67.8842 72.049 67.8299 72.0675 67.7736C72.0861 67.7164 72.1003 67.6574 72.1099 67.5973C72.1196 67.5373 72.1241 67.4754 72.1241 67.4145C72.1241 67.3536 72.1196 67.2916 72.1099 67.2317Z" fill="url(#paint5_linear_41_400)"/>
<path d="M83.0075 66.4772H74.2069C73.7961 66.4772 73.4632 66.897 73.4632 67.4147C73.4632 67.9324 73.7961 68.3522 74.2069 68.3522H83.0075C83.4181 68.3522 83.7512 67.9324 83.7512 67.4147C83.7512 66.897 83.4181 66.4772 83.0075 66.4772Z" fill="url(#paint6_linear_41_400)"/>
<path d="M92.5802 79.0916H80.6821C80.2714 79.0916 79.9384 79.5114 79.9384 80.0291V89.2162C79.9384 89.7339 80.2714 90.1537 80.6821 90.1537H92.5801C92.9908 90.1537 93.3239 89.7339 93.3239 89.2162V80.0291C93.3239 79.5113 92.9909 79.0916 92.5802 79.0916ZM81.4258 88.2787V80.9666H91.8364V88.2787H81.4258Z" fill="url(#paint7_linear_41_400)"/>
<path d="M92.5802 91.8369H80.6821C80.2714 91.8369 79.9384 92.2567 79.9384 92.7744V98.4969C79.9384 99.0146 80.2714 99.4344 80.6821 99.4344H92.5801C92.9908 99.4344 93.3239 99.0146 93.3239 98.4969V92.7744C93.3239 92.2567 92.9909 91.8369 92.5802 91.8369ZM81.4258 97.5594V93.7119H91.8364V97.5594H81.4258Z" fill="url(#paint8_linear_41_400)"/>
<path d="M90.824 83.9597L89.5225 82.3191C89.232 81.9531 88.7613 81.9531 88.4707 82.3191C88.1803 82.6852 88.1803 83.2788 88.4707 83.645L89.2463 84.6227L88.4707 85.6004C88.1803 85.9665 88.1803 86.5601 88.4708 86.9262C88.616 87.1092 88.8063 87.2008 88.9967 87.2008C89.187 87.2008 89.3773 87.1092 89.5225 86.9262L90.824 85.2856C91.1145 84.9195 91.1145 84.3259 90.824 83.9597Z" fill="url(#paint9_linear_41_400)"/>
<path d="M84.0316 84.6226L84.8072 83.6448C85.0977 83.2787 85.0977 82.6851 84.8072 82.3189C84.5167 81.9529 84.046 81.9529 83.7554 82.3189L82.4539 83.9596C82.1635 84.3257 82.1635 84.9193 82.4539 85.2855L83.7555 86.9262C83.9007 87.1092 84.091 87.2008 84.2813 87.2008C84.4717 87.2008 84.662 87.1092 84.8072 86.9262C85.0977 86.5601 85.0977 85.9665 84.8072 85.6003L84.0316 84.6226Z" fill="url(#paint10_linear_41_400)"/>
</g>
<defs>
<filter id="filter0_d_41_400" x="0.318451" y="0.125" width="154.57" height="174" filterUnits="userSpaceOnUse" color-interpolation-filters="sRGB">
<feFlood flood-opacity="0" result="BackgroundImageFix"/>
<feColorMatrix in="SourceAlpha" type="matrix" values="0 0 0 0 0 0 0 0 0 0 0 0 0 0 0 0 0 0 127 0" result="hardAlpha"/>
<feOffset dy="4"/>
<feGaussianBlur stdDeviation="20"/>
<feColorMatrix type="matrix" values="0 0 0 0 0 0 0 0 0 0 0 0 0 0 0 0 0 0 0.25 0"/>
<feBlend mode="normal" in2="BackgroundImageFix" result="effect1_dropShadow_41_400"/>
<feBlend mode="normal" in="SourceGraphic" in2="effect1_dropShadow_41_400" result="shape"/>
</filter>
<linearGradient id="paint0_linear_41_400" x1="58.1696" y1="56.6836" x2="106.54" y2="101.227" gradientUnits="userSpaceOnUse">
<stop offset="0.0271195" stop-color="#6C48D3"/>
<stop offset="0.287564" stop-color="#4D4DE2"/>
<stop offset="0.808912" stop-color="#3778FC"/>
<stop offset="0.967351" stop-color="#0370FF"/>
</linearGradient>
<linearGradient id="paint1_linear_41_400" x1="88.9431" y1="72.8882" x2="90.8328" y2="74.627" gradientUnits="userSpaceOnUse">
<stop offset="0.0271195" stop-color="#6C48D3"/>
<stop offset="0.287564" stop-color="#4D4DE2"/>
<stop offset="0.808912" stop-color="#3778FC"/>
<stop offset="0.967351" stop-color="#0370FF"/>
</linearGradient>
<linearGradient id="paint2_linear_41_400" x1="82.832" y1="72.8888" x2="83.9835" y2="76.2908" gradientUnits="userSpaceOnUse">
<stop offset="0.0271195" stop-color="#6C48D3"/>
<stop offset="0.287564" stop-color="#4D4DE2"/>
<stop offset="0.808912" stop-color="#3778FC"/>
<stop offset="0.967351" stop-color="#0370FF"/>
</linearGradient>
<linearGradient id="paint3_linear_41_400" x1="84.9075" y1="103.044" x2="86.3642" y2="106.154" gradientUnits="userSpaceOnUse">
<stop offset="0.0271195" stop-color="#6C48D3"/>
<stop offset="0.287564" stop-color="#4D4DE2"/>
<stop offset="0.808912" stop-color="#3778FC"/>
<stop offset="0.967351" stop-color="#0370FF"/>
</linearGradient>
<linearGradient id="paint4_linear_41_400" x1="67.2211" y1="73.228" x2="71.917" y2="76.1765" gradientUnits="userSpaceOnUse">
<stop offset="0.0271195" stop-color="#6C48D3"/>
<stop offset="0.287564" stop-color="#4D4DE2"/>
<stop offset="0.808912" stop-color="#3778FC"/>
<stop offset="0.967351" stop-color="#0370FF"/>
</linearGradient>
<linearGradient id="paint5_linear_41_400" x1="70.6366" y1="66.353" x2="72.5258" y2="68.093" gradientUnits="userSpaceOnUse">
<stop offset="0.0271195" stop-color="#6C48D3"/>
<stop offset="0.287564" stop-color="#4D4DE2"/>
<stop offset="0.808912" stop-color="#3778FC"/>
<stop offset="0.967351" stop-color="#0370FF"/>
</linearGradient>
<linearGradient id="paint6_linear_41_400" x1="73.4631" y1="66.3526" x2="74.0441" y2="70.0532" gradientUnits="userSpaceOnUse">
<stop offset="0.0271195" stop-color="#6C48D3"/>
<stop offset="0.287564" stop-color="#4D4DE2"/>
<stop offset="0.808912" stop-color="#3778FC"/>
<stop offset="0.967351" stop-color="#0370FF"/>
</linearGradient>
<linearGradient id="paint7_linear_41_400" x1="79.9384" y1="78.3567" x2="90.5078" y2="93.2029" gradientUnits="userSpaceOnUse">
<stop offset="0.0271195" stop-color="#6C48D3"/>
<stop offset="0.287564" stop-color="#4D4DE2"/>
<stop offset="0.808912" stop-color="#3778FC"/>
<stop offset="0.967351" stop-color="#0370FF"/>
</linearGradient>
<linearGradient id="paint8_linear_41_400" x1="79.9384" y1="91.3322" x2="86.0013" y2="103.732" gradientUnits="userSpaceOnUse">
<stop offset="0.0271195" stop-color="#6C48D3"/>
<stop offset="0.287564" stop-color="#4D4DE2"/>
<stop offset="0.808912" stop-color="#3778FC"/>
<stop offset="0.967351" stop-color="#0370FF"/>
</linearGradient>
<linearGradient id="paint9_linear_41_400" x1="88.2529" y1="81.702" x2="92.9488" y2="84.6505" gradientUnits="userSpaceOnUse">
<stop offset="0.0271195" stop-color="#6C48D3"/>
<stop offset="0.287564" stop-color="#4D4DE2"/>
<stop offset="0.808912" stop-color="#3778FC"/>
<stop offset="0.967351" stop-color="#0370FF"/>
</linearGradient>
<linearGradient id="paint10_linear_41_400" x1="82.2361" y1="81.7019" x2="86.932" y2="84.6504" gradientUnits="userSpaceOnUse">
<stop offset="0.0271195" stop-color="#6C48D3"/>
<stop offset="0.287564" stop-color="#4D4DE2"/>
<stop offset="0.808912" stop-color="#3778FC"/>
<stop offset="0.967351" stop-color="#0370FF"/>
</linearGradient>
<clipPath id="clip0_41_400">
<rect width="38.0782" height="48" fill="white" transform="translate(58.1696 59.8724)"/>
</clipPath>
</defs>
</svg>
