<svg width="155" height="175" viewBox="0 0 155 175" fill="none" xmlns="http://www.w3.org/2000/svg">
<g filter="url(#filter0_d_41_401)">
<rect x="40.4283" y="36.125" width="74.5718" height="94" rx="10" fill="#FAFAFA"/>
</g>
<g clip-path="url(#clip0_41_401)">
<path d="M88.9984 99.446C88.9887 99.3861 88.9746 99.3269 88.956 99.2707C88.9374 99.2135 88.9144 99.1592 88.8876 99.1086C88.8601 99.057 88.8288 99.0091 88.7946 98.966C88.7604 98.9229 88.7225 98.8835 88.6816 98.8498C88.6414 98.8161 88.5983 98.787 88.5537 98.7635C88.5083 98.7401 88.4615 98.7213 88.4146 98.7102C88.1729 98.6483 87.9163 98.7485 87.743 98.966C87.7088 99.0091 87.6776 99.057 87.6508 99.1086C87.624 99.1592 87.601 99.2135 87.5824 99.2707C87.5638 99.327 87.5497 99.386 87.54 99.446C87.5303 99.506 87.5251 99.5679 87.5251 99.6288C87.5251 99.6897 87.5303 99.7516 87.54 99.8116C87.5497 99.8716 87.5638 99.9306 87.5824 99.9878C87.601 100.044 87.624 100.098 87.6508 100.149C87.6776 100.201 87.7088 100.248 87.743 100.292C87.8814 100.466 88.0732 100.566 88.2688 100.566C88.3172 100.566 88.3663 100.561 88.4146 100.549C88.4615 100.536 88.5083 100.518 88.5537 100.494C88.5983 100.471 88.6414 100.443 88.6816 100.409C88.7225 100.374 88.7604 100.335 88.7946 100.292C88.8288 100.249 88.8601 100.201 88.8876 100.149C88.9144 100.099 88.9374 100.044 88.956 99.9879C88.9746 99.9307 88.9887 99.8716 88.9984 99.8116C89.0081 99.7516 89.0125 99.6897 89.0125 99.6288C89.0125 99.5679 89.0081 99.5059 88.9984 99.446Z" fill="url(#paint0_linear_41_401)"/>
<path d="M85.4428 98.6913H67.1576C66.7468 98.6913 66.4138 99.1112 66.4138 99.6288C66.4138 100.147 66.7468 100.566 67.1576 100.566H85.4428C85.8535 100.566 86.1865 100.147 86.1865 99.6288C86.1865 99.1112 85.8535 98.6913 85.4428 98.6913Z" fill="url(#paint1_linear_41_401)"/>
<path d="M67.6835 102.509C67.6493 102.466 67.6114 102.426 67.5704 102.393C67.5303 102.359 67.4872 102.33 67.4418 102.306C67.3972 102.283 67.3503 102.264 67.3027 102.252C67.2068 102.228 67.1079 102.228 67.0119 102.252C66.9651 102.264 66.9182 102.283 66.8728 102.306C66.8282 102.33 66.7851 102.359 66.7449 102.393C66.704 102.426 66.6661 102.466 66.6319 102.509C66.5977 102.552 66.5664 102.6 66.5389 102.651C66.5121 102.702 66.4891 102.756 66.4705 102.813C66.4519 102.87 66.4378 102.929 66.4281 102.989C66.4184 103.049 66.414 103.111 66.414 103.172C66.414 103.232 66.4184 103.294 66.4281 103.354C66.4378 103.414 66.4519 103.473 66.4705 103.53C66.4891 103.587 66.5121 103.641 66.5389 103.692C66.5664 103.743 66.5977 103.791 66.6319 103.834C66.6661 103.877 66.704 103.917 66.7449 103.951C66.7851 103.984 66.8282 104.013 66.8728 104.037C66.9182 104.06 66.9651 104.079 67.0119 104.09C67.0603 104.102 67.1093 104.109 67.1577 104.109C67.206 104.109 67.2551 104.102 67.3027 104.09C67.3503 104.079 67.3972 104.06 67.4418 104.037C67.4872 104.013 67.5303 103.984 67.5704 103.951C67.6114 103.917 67.6493 103.877 67.6835 103.834C67.7177 103.791 67.7489 103.743 67.7757 103.692C67.8025 103.641 67.8255 103.587 67.8441 103.53C67.8627 103.473 67.8769 103.414 67.8865 103.354C67.8962 103.294 67.9014 103.232 67.9014 103.172C67.9014 102.925 67.8218 102.683 67.6835 102.509Z" fill="url(#paint2_linear_41_401)"/>
<path d="M88.2689 102.234H69.9837C69.573 102.234 69.24 102.654 69.24 103.172C69.24 103.689 69.573 104.109 69.9837 104.109H88.2689C88.6797 104.109 89.0126 103.689 89.0126 103.172C89.0126 102.654 88.6797 102.234 88.2689 102.234Z" fill="url(#paint3_linear_41_401)"/>
<path d="M92.0064 59.125H63.4202C63.0094 59.125 62.6765 59.5448 62.6765 60.0625V106.188C62.6765 106.705 63.0094 107.125 63.4202 107.125H92.0063C92.4171 107.125 92.75 106.705 92.75 106.188V60.0625C92.7501 60.0625 92.7501 60.0625 92.7501 60.0625C92.7501 59.5448 92.4171 59.125 92.0064 59.125ZM64.1639 61H91.2626V77.7506H89.1124L82.4728 66.5908C82.3323 66.3547 82.1118 66.2158 81.8778 66.2158C81.6437 66.2158 81.4233 66.3547 81.2828 66.5908L76.5782 74.4981L73.1388 69.4777C72.9976 69.2716 72.7921 69.153 72.576 69.153C72.3599 69.153 72.1544 69.2716 72.0132 69.4777L66.3457 77.7505H64.1639V61ZM81.5109 73.5346H79.0108L79.5364 72.6511H84.2192L87.2531 77.7506H76.5024L77.8953 75.4096H81.5109C81.9217 75.4096 82.2546 74.9897 82.2546 74.4721C82.2546 73.9544 81.9217 73.5346 81.5109 73.5346ZM80.652 70.7761L81.8778 68.7157L83.1036 70.7761H80.652ZM75.6647 76.0335L74.6629 77.7173L74.6432 77.7506H68.3109L72.576 71.5249L75.6647 76.0335ZM64.1639 79.6259H91.2626V91.689H64.1639V79.6259ZM64.1639 93.564H91.2626V95.5327H64.1639V93.564ZM64.1639 105.25V97.4077H91.2626V105.25H64.1639Z" fill="url(#paint4_linear_41_401)"/>
<path d="M75.8232 62.1774C74.3709 62.1774 73.1895 63.6668 73.1895 65.4974C73.1895 67.328 74.371 68.8174 75.8232 68.8174C77.2754 68.8174 78.457 67.328 78.457 65.4974C78.457 63.6668 77.2755 62.1774 75.8232 62.1774ZM75.8232 66.9424C75.1911 66.9424 74.6769 66.2942 74.6769 65.4974C74.6769 64.7006 75.1911 64.0524 75.8232 64.0524C76.4553 64.0524 76.9695 64.7006 76.9695 65.4974C76.9695 66.2942 76.4553 66.9424 75.8232 66.9424Z" fill="url(#paint5_linear_41_401)"/>
<path d="M71.8755 81.3926H66.8812C66.4704 81.3926 66.1375 81.8124 66.1375 82.3301V88.7363C66.1375 89.254 66.4704 89.6738 66.8812 89.6738H71.8755C72.2863 89.6738 72.6192 89.254 72.6192 88.7363V82.3301C72.6192 81.8123 72.2863 81.3926 71.8755 81.3926ZM71.1318 87.7988H67.6249V83.2676H71.1318V87.7988Z" fill="url(#paint6_linear_41_401)"/>
<path d="M80.2104 81.3926H75.2162C74.8054 81.3926 74.4725 81.8124 74.4725 82.3301V88.7363C74.4725 89.254 74.8054 89.6738 75.2162 89.6738H80.2104C80.6212 89.6738 80.9542 89.254 80.9542 88.7363V82.3301C80.9542 81.8123 80.6212 81.3926 80.2104 81.3926ZM79.4667 87.7988H75.9599V83.2676H79.4667V87.7988Z" fill="url(#paint7_linear_41_401)"/>
<path d="M88.5454 81.3926H83.5511C83.1403 81.3926 82.8073 81.8124 82.8073 82.3301V88.7363C82.8073 89.254 83.1403 89.6738 83.5511 89.6738H88.5454C88.9562 89.6738 89.2891 89.254 89.2891 88.7363V82.3301C89.2891 81.8124 88.9562 81.3926 88.5454 81.3926ZM87.8017 87.7988H84.2948V83.2676H87.8017V87.7988Z" fill="url(#paint8_linear_41_401)"/>
</g>
<defs>
<filter id="filter0_d_41_401" x="0.428345" y="0.125" width="154.572" height="174" filterUnits="userSpaceOnUse" color-interpolation-filters="sRGB">
<feFlood flood-opacity="0" result="BackgroundImageFix"/>
<feColorMatrix in="SourceAlpha" type="matrix" values="0 0 0 0 0 0 0 0 0 0 0 0 0 0 0 0 0 0 127 0" result="hardAlpha"/>
<feOffset dy="4"/>
<feGaussianBlur stdDeviation="20"/>
<feColorMatrix type="matrix" values="0 0 0 0 0 0 0 0 0 0 0 0 0 0 0 0 0 0 0.25 0"/>
<feBlend mode="normal" in2="BackgroundImageFix" result="effect1_dropShadow_41_401"/>
<feBlend mode="normal" in="SourceGraphic" in2="effect1_dropShadow_41_401" result="shape"/>
</filter>
<linearGradient id="paint0_linear_41_401" x1="87.5251" y1="98.5676" x2="89.4138" y2="100.308" gradientUnits="userSpaceOnUse">
<stop offset="0.0271195" stop-color="#6C48D3"/>
<stop offset="0.287564" stop-color="#4D4DE2"/>
<stop offset="0.808912" stop-color="#3778FC"/>
<stop offset="0.967351" stop-color="#0370FF"/>
</linearGradient>
<linearGradient id="paint1_linear_41_401" x1="66.4138" y1="98.5668" x2="66.7215" y2="102.333" gradientUnits="userSpaceOnUse">
<stop offset="0.0271195" stop-color="#6C48D3"/>
<stop offset="0.287564" stop-color="#4D4DE2"/>
<stop offset="0.808912" stop-color="#3778FC"/>
<stop offset="0.967351" stop-color="#0370FF"/>
</linearGradient>
<linearGradient id="paint2_linear_41_401" x1="66.414" y1="102.11" x2="68.3031" y2="103.85" gradientUnits="userSpaceOnUse">
<stop offset="0.0271195" stop-color="#6C48D3"/>
<stop offset="0.287564" stop-color="#4D4DE2"/>
<stop offset="0.808912" stop-color="#3778FC"/>
<stop offset="0.967351" stop-color="#0370FF"/>
</linearGradient>
<linearGradient id="paint3_linear_41_401" x1="69.24" y1="102.11" x2="69.5477" y2="105.876" gradientUnits="userSpaceOnUse">
<stop offset="0.0271195" stop-color="#6C48D3"/>
<stop offset="0.287564" stop-color="#4D4DE2"/>
<stop offset="0.808912" stop-color="#3778FC"/>
<stop offset="0.967351" stop-color="#0370FF"/>
</linearGradient>
<linearGradient id="paint4_linear_41_401" x1="62.6765" y1="55.9362" x2="108.851" y2="89.519" gradientUnits="userSpaceOnUse">
<stop offset="0.0271195" stop-color="#6C48D3"/>
<stop offset="0.287564" stop-color="#4D4DE2"/>
<stop offset="0.808912" stop-color="#3778FC"/>
<stop offset="0.967351" stop-color="#0370FF"/>
</linearGradient>
<linearGradient id="paint5_linear_41_401" x1="73.1895" y1="61.7363" x2="79.8806" y2="67.8982" gradientUnits="userSpaceOnUse">
<stop offset="0.0271195" stop-color="#6C48D3"/>
<stop offset="0.287564" stop-color="#4D4DE2"/>
<stop offset="0.808912" stop-color="#3778FC"/>
<stop offset="0.967351" stop-color="#0370FF"/>
</linearGradient>
<linearGradient id="paint6_linear_41_401" x1="66.1375" y1="80.8424" x2="74.4726" y2="88.4157" gradientUnits="userSpaceOnUse">
<stop offset="0.0271195" stop-color="#6C48D3"/>
<stop offset="0.287564" stop-color="#4D4DE2"/>
<stop offset="0.808912" stop-color="#3778FC"/>
<stop offset="0.967351" stop-color="#0370FF"/>
</linearGradient>
<linearGradient id="paint7_linear_41_401" x1="74.4725" y1="80.8424" x2="82.8076" y2="88.4156" gradientUnits="userSpaceOnUse">
<stop offset="0.0271195" stop-color="#6C48D3"/>
<stop offset="0.287564" stop-color="#4D4DE2"/>
<stop offset="0.808912" stop-color="#3778FC"/>
<stop offset="0.967351" stop-color="#0370FF"/>
</linearGradient>
<linearGradient id="paint8_linear_41_401" x1="82.8073" y1="80.8424" x2="91.1425" y2="88.4157" gradientUnits="userSpaceOnUse">
<stop offset="0.0271195" stop-color="#6C48D3"/>
<stop offset="0.287564" stop-color="#4D4DE2"/>
<stop offset="0.808912" stop-color="#3778FC"/>
<stop offset="0.967351" stop-color="#0370FF"/>
</linearGradient>
<clipPath id="clip0_41_401">
<rect width="38.0782" height="48" fill="white" transform="translate(58.6741 59.125)"/>
</clipPath>
</defs>
</svg>
