<svg width="155" height="175" viewBox="0 0 155 175" fill="none" xmlns="http://www.w3.org/2000/svg">
<g filter="url(#filter0_d_41_398)">
<rect x="40.0716" y="36.875" width="74.5698" height="94" rx="10" fill="#FAFAFA"/>
</g>
<g clip-path="url(#clip0_41_398)">
<path d="M93.8944 61.488H60.7806C59.412 61.488 58.2984 62.8916 58.2984 64.6169V101.383C58.2984 103.108 59.412 104.512 60.7806 104.512H93.8944C95.263 104.512 96.3766 103.108 96.3766 101.383V64.6169C96.3766 62.8916 95.263 61.488 93.8944 61.488ZM94.8892 101.383C94.8892 102.074 94.4429 102.637 93.8944 102.637H60.7806C60.232 102.637 59.7858 102.074 59.7858 101.383V70.4518H94.8892V101.383ZM94.8892 68.5769H59.7858V64.6169C59.7858 63.9255 60.232 63.3629 60.7806 63.3629H93.8944C94.4429 63.3629 94.8892 63.9254 94.8892 64.6169V68.5769Z" fill="url(#paint0_linear_41_398)"/>
<path d="M92.5753 65.7978C92.5666 65.7378 92.5516 65.6787 92.533 65.6225C92.5144 65.5662 92.4921 65.5109 92.4654 65.4603C92.4379 65.4087 92.4067 65.3609 92.3725 65.3178C92.3382 65.2747 92.3002 65.2353 92.2593 65.2015C92.2192 65.1678 92.176 65.1387 92.1314 65.1153C92.0861 65.0919 92.0392 65.074 91.9923 65.0619C91.8964 65.0375 91.7975 65.0375 91.7016 65.0619C91.654 65.074 91.6071 65.0919 91.5625 65.1153C91.5172 65.1387 91.4741 65.1678 91.4339 65.2015C91.393 65.2353 91.355 65.2747 91.3208 65.3178C91.2866 65.3609 91.2553 65.4087 91.2286 65.4603C91.2019 65.5109 91.1787 65.5662 91.1601 65.6225C91.1415 65.6787 91.1275 65.7378 91.1178 65.7978C91.1081 65.8578 91.1029 65.9197 91.1029 65.9806C91.1029 66.0425 91.1081 66.1034 91.1178 66.1644C91.1275 66.2244 91.1415 66.2825 91.1601 66.3397C91.1787 66.3959 91.2019 66.4503 91.2286 66.5009C91.2553 66.5525 91.2866 66.6003 91.3208 66.6434C91.355 66.6865 91.393 66.7259 91.4339 66.7606C91.4741 66.7944 91.5172 66.8234 91.5625 66.8469C91.6072 66.8703 91.654 66.8881 91.7016 66.9003C91.7492 66.9125 91.7982 66.9181 91.8466 66.9181C92.0422 66.9181 92.2341 66.8187 92.3724 66.6434C92.4066 66.6003 92.4378 66.5525 92.4653 66.5009C92.492 66.4503 92.5144 66.3959 92.533 66.3397C92.5515 66.2825 92.5664 66.2244 92.5753 66.1644C92.585 66.1034 92.5902 66.0425 92.5902 65.9806C92.5902 65.9197 92.585 65.8578 92.5753 65.7978Z" fill="url(#paint1_linear_41_398)"/>
<path d="M89.029 65.0434H74.431C74.0204 65.0434 73.6873 65.4631 73.6873 65.9809C73.6873 66.4987 74.0204 66.9184 74.431 66.9184H89.029C89.4397 66.9184 89.7727 66.4987 89.7727 65.9809C89.7727 65.4631 89.4397 65.0434 89.029 65.0434Z" fill="url(#paint2_linear_41_398)"/>
<path d="M66.3022 65.7978C66.2926 65.7378 66.2784 65.6787 66.2598 65.6225C66.2412 65.5662 66.2182 65.5109 66.1914 65.4603C66.1639 65.4087 66.1334 65.3609 66.0984 65.3178C66.0642 65.2747 66.0263 65.2353 65.9853 65.2015C65.9451 65.1678 65.9021 65.1387 65.8574 65.1153C65.8121 65.0919 65.7652 65.074 65.7183 65.0619C65.6224 65.0375 65.5235 65.0375 65.4275 65.0619C65.3799 65.074 65.3331 65.0919 65.2885 65.1153C65.2432 65.1387 65.2 65.1678 65.1599 65.2015C65.119 65.2353 65.081 65.2747 65.0468 65.3178C65.0126 65.3609 64.9813 65.4087 64.9546 65.4603C64.9278 65.5109 64.9048 65.5662 64.8862 65.6225C64.8676 65.6787 64.8534 65.7378 64.8438 65.7978C64.8341 65.8578 64.8289 65.9197 64.8289 65.9806C64.8289 66.0415 64.8341 66.1034 64.8438 66.1644C64.8534 66.2234 64.8676 66.2825 64.8862 66.3397C64.9048 66.3959 64.9278 66.4503 64.9546 66.5009C64.9813 66.5525 65.0126 66.6003 65.0468 66.6434C65.081 66.6865 65.119 66.7259 65.1599 66.7606C65.2 66.7944 65.2432 66.8234 65.2885 66.8469C65.3331 66.8703 65.3799 66.8881 65.4275 66.9003C65.4752 66.9125 65.5243 66.9181 65.5725 66.9181C65.6216 66.9181 65.67 66.9125 65.7183 66.9003C65.7652 66.8881 65.8121 66.8703 65.8574 66.8469C65.9021 66.8234 65.9451 66.7944 65.9853 66.7606C66.0263 66.7259 66.0642 66.6865 66.0984 66.6434C66.1326 66.6003 66.1639 66.5525 66.1914 66.5009C66.2182 66.4503 66.2412 66.3959 66.2598 66.3397C66.2784 66.2825 66.2925 66.2244 66.3022 66.1644C66.3119 66.1034 66.3163 66.0425 66.3163 65.9806C66.3163 65.9197 66.3118 65.8578 66.3022 65.7978Z" fill="url(#paint3_linear_41_398)"/>
<path d="M69.0467 65.7978C69.0376 65.7378 69.0228 65.6787 69.0042 65.6225C68.9856 65.5653 68.9625 65.5109 68.9358 65.4603C68.909 65.4087 68.8778 65.3609 68.8436 65.3178C68.8093 65.2747 68.7713 65.2353 68.7304 65.2015C68.6903 65.1678 68.6471 65.1387 68.6018 65.1153C68.5572 65.0919 68.5104 65.074 68.4628 65.0619C68.3668 65.0375 68.2687 65.0375 68.172 65.0619C68.1251 65.074 68.0783 65.0919 68.0329 65.1153C67.9883 65.1387 67.9451 65.1678 67.905 65.2015C67.8641 65.2353 67.8261 65.2747 67.7919 65.3178C67.7577 65.3609 67.7264 65.4087 67.6989 65.4603C67.6722 65.5109 67.6491 65.5653 67.6305 65.6225C67.6119 65.6787 67.5978 65.7378 67.5882 65.7978C67.5785 65.8578 67.574 65.9197 67.574 65.9806C67.574 66.2281 67.6536 66.469 67.7919 66.6434C67.8262 66.6865 67.8642 66.7259 67.9051 66.7606C67.9452 66.7944 67.9884 66.8234 68.033 66.8469C68.0783 66.8703 68.1252 66.8881 68.1721 66.9003C68.2204 66.9125 68.2695 66.9181 68.3178 66.9181C68.3662 66.9181 68.4153 66.9125 68.4628 66.9003C68.5104 66.8881 68.5573 66.8703 68.6019 66.8469C68.6472 66.8234 68.6904 66.7944 68.7305 66.7606C68.7714 66.7259 68.8094 66.6865 68.8436 66.6434C68.9819 66.469 69.0615 66.2281 69.0615 65.9806C69.0615 65.9197 69.0563 65.8578 69.0467 65.7978Z" fill="url(#paint4_linear_41_398)"/>
<path d="M63.3541 65.3178C63.1816 65.1003 62.9243 65.0009 62.6826 65.0619C62.6356 65.0741 62.5888 65.0919 62.5435 65.1153C62.4988 65.1387 62.4557 65.1678 62.4155 65.2016C62.3746 65.2353 62.3367 65.2747 62.3025 65.3178C62.2682 65.3609 62.237 65.4087 62.2095 65.4603C62.1827 65.5109 62.1597 65.5653 62.1411 65.6225C62.1225 65.6787 62.1083 65.7378 62.0987 65.7978C62.089 65.8578 62.0846 65.9197 62.0846 65.9806C62.0846 66.0425 62.0891 66.1034 62.0987 66.1644C62.1083 66.2234 62.1225 66.2825 62.1411 66.3397C62.1597 66.3959 62.1827 66.4503 62.2095 66.5009C62.237 66.5525 62.2682 66.6003 62.3025 66.6434C62.3367 66.6875 62.3746 66.7259 62.4155 66.7606C62.4557 66.7944 62.4988 66.8234 62.5435 66.8469C62.5888 66.8703 62.6356 66.8881 62.6826 66.9003C62.7308 66.9125 62.78 66.9181 62.8283 66.9181C63.0239 66.9181 63.2158 66.8187 63.3541 66.6434C63.4924 66.4691 63.5721 66.2272 63.5721 65.9806C63.5721 65.7341 63.4925 65.4922 63.3541 65.3178Z" fill="url(#paint5_linear_41_398)"/>
<path d="M92.3743 72.5359H62.3007C61.8901 72.5359 61.557 72.9556 61.557 73.4734V99.5052C61.557 100.023 61.8901 100.443 62.3007 100.443H92.3743C92.785 100.443 93.118 100.023 93.118 99.5052V73.4734C93.118 72.9557 92.785 72.5359 92.3743 72.5359ZM91.6306 98.5678H63.0445V74.4109H91.6306V98.5678Z" fill="url(#paint6_linear_41_398)"/>
<path d="M75.976 76.0723H65.0781C64.6674 76.0723 64.3343 76.492 64.3343 77.0098V96.1039C64.3343 96.6217 64.6674 97.0414 65.0781 97.0414H75.976C76.3867 97.0414 76.7197 96.6217 76.7197 96.1039V77.0098C76.7197 76.4922 76.3868 76.0723 75.976 76.0723ZM75.2323 95.1665H65.8218V77.9473H75.2323V95.1665Z" fill="url(#paint7_linear_41_398)"/>
<path d="M71.3701 86.5569L74.076 80.172C74.2696 79.7154 74.1328 79.1474 73.7705 78.9034C73.4083 78.6594 72.9576 78.8319 72.7641 79.2885L70.527 84.5672L68.2898 79.2885C68.0963 78.8319 67.6456 78.6595 67.2834 78.9034C66.9211 79.1474 66.7843 79.7154 66.9779 80.172L69.6838 86.5569L66.9779 92.9417C66.7844 93.3984 66.9211 93.9664 67.2834 94.2103C67.395 94.2855 67.5149 94.3212 67.6332 94.3212C67.8988 94.3212 68.1558 94.1413 68.2898 93.8252L70.527 88.5465L72.7641 93.8252C72.8981 94.1413 73.1551 94.3212 73.4208 94.3212C73.539 94.3212 73.659 94.2855 73.7705 94.2103C74.1328 93.9663 74.2696 93.3984 74.076 92.9417L71.3701 86.5569Z" fill="url(#paint8_linear_41_398)"/>
<path d="M89.8413 76.0723H78.9434C78.9368 76.0723 78.9305 76.0733 78.924 76.0735C78.91 76.074 78.8959 76.0747 78.8819 76.0762C78.87 76.0774 78.8583 76.0792 78.8465 76.0812C78.8349 76.0831 78.8234 76.0852 78.812 76.0878C78.7986 76.0908 78.7853 76.0944 78.7722 76.0982C78.7624 76.1011 78.7528 76.1042 78.7431 76.1077C78.7293 76.1126 78.7157 76.1179 78.7022 76.1237C78.693 76.1277 78.6839 76.132 78.6747 76.1364C78.6618 76.1428 78.6489 76.1494 78.6364 76.1566C78.6266 76.1622 78.617 76.1681 78.6074 76.1742C78.5962 76.1813 78.5852 76.1887 78.5743 76.1966C78.5637 76.2043 78.5532 76.2123 78.5429 76.2207C78.5337 76.2282 78.5245 76.2358 78.5156 76.2437C78.5044 76.2536 78.4936 76.2639 78.4829 76.2746C78.4751 76.2824 78.4673 76.2903 78.4598 76.2985C78.4492 76.31 78.4388 76.3219 78.4286 76.3343C78.4212 76.3432 78.414 76.3524 78.4069 76.3617C78.3977 76.3739 78.3887 76.3862 78.3799 76.3991C78.3723 76.4103 78.3649 76.422 78.3576 76.4337C78.3504 76.4454 78.3433 76.4571 78.3364 76.4694C78.3283 76.4838 78.3207 76.4987 78.3132 76.5138C78.3098 76.5208 78.3059 76.5271 78.3025 76.5343C78.3007 76.5383 78.2992 76.5425 78.2974 76.5465C78.29 76.563 78.2831 76.5799 78.2765 76.597C78.2722 76.6081 78.2676 76.6192 78.2637 76.6305C78.258 76.6466 78.2531 76.6631 78.2481 76.6796C78.2442 76.6925 78.2402 76.7055 78.2368 76.7186C78.233 76.7331 78.2299 76.7479 78.2267 76.7626C78.2233 76.7783 78.2199 76.794 78.2171 76.8097C78.215 76.8223 78.2133 76.8351 78.2116 76.8479C78.209 76.8661 78.2066 76.8845 78.2049 76.9029C78.2038 76.9142 78.2033 76.9258 78.2026 76.9373C78.2014 76.9572 78.2004 76.977 78.2002 76.9967C78.2001 77.0011 78.1997 77.0054 78.1997 77.0098V85.0958C78.1997 85.6136 78.5327 86.0333 78.9434 86.0333H89.839C89.8395 86.0333 89.8401 86.0334 89.8406 86.0334C89.8424 86.0334 89.8442 86.033 89.8459 86.0329C89.8738 86.0327 89.9013 86.0302 89.9283 86.0263C89.9361 86.0251 89.9437 86.0233 89.9515 86.0219C89.9737 86.0177 89.9956 86.0124 90.0171 86.0058C90.0245 86.0036 90.0319 86.0012 90.0392 85.9986C90.063 85.9904 90.0862 85.9807 90.1088 85.9696C90.1133 85.9675 90.1179 85.9657 90.1224 85.9634C90.1495 85.9494 90.1759 85.9336 90.2012 85.9158C90.2067 85.912 90.2119 85.9075 90.2174 85.9034C90.2365 85.8893 90.2551 85.8742 90.273 85.8581C90.2814 85.8506 90.2896 85.8428 90.2978 85.8347C90.3138 85.8189 90.3293 85.8022 90.3442 85.7849C90.3507 85.7774 90.3574 85.7703 90.3637 85.7625C90.3838 85.7375 90.4027 85.711 90.4205 85.6831C90.4252 85.6756 90.4296 85.6677 90.4341 85.66C90.4486 85.6359 90.4621 85.6109 90.4748 85.5851C90.4771 85.5802 90.48 85.5761 90.4823 85.5712C90.4841 85.5672 90.4855 85.5629 90.4874 85.5589C90.4948 85.5424 90.5017 85.5255 90.5083 85.5085C90.5126 85.4973 90.5171 85.4863 90.5211 85.475C90.5267 85.4589 90.5317 85.4424 90.5367 85.4259C90.5406 85.4129 90.5446 85.4 90.548 85.3869C90.5518 85.3724 90.5549 85.3575 90.5581 85.3428C90.5615 85.3272 90.5649 85.3115 90.5676 85.2958C90.5698 85.2832 90.5714 85.2704 90.5732 85.2576C90.5757 85.2393 90.5782 85.2209 90.5799 85.2026C90.581 85.1912 90.5815 85.1797 90.5822 85.1682C90.5834 85.1483 90.5844 85.1285 90.5846 85.1087C90.5847 85.1043 90.5851 85.1001 90.5851 85.0957V77.0097C90.585 76.4922 90.252 76.0723 89.8413 76.0723ZM79.6871 84.1584V78.6495L87.1117 84.1584H79.6871ZM89.0976 83.4563L81.673 77.9475H89.0976V83.4563Z" fill="url(#paint9_linear_41_398)"/>
<path d="M89.8414 87.0806H78.9434C78.9371 87.0806 78.931 87.0816 78.9248 87.0818C78.9102 87.0823 78.8959 87.083 78.8815 87.0845C78.8699 87.0857 78.8586 87.0874 78.8472 87.0893C78.8352 87.0913 78.8233 87.0934 78.8114 87.0961C78.7984 87.099 78.7855 87.1025 78.7727 87.1063C78.7626 87.1093 78.7525 87.1125 78.7425 87.1161C78.729 87.1209 78.7157 87.126 78.7026 87.1318C78.693 87.1359 78.6836 87.1403 78.6742 87.1449C78.6615 87.1511 78.6491 87.1576 78.6368 87.1647C78.6267 87.1704 78.6169 87.1765 78.607 87.1828C78.596 87.1898 78.5852 87.197 78.5746 87.2046C78.5638 87.2125 78.553 87.2207 78.5424 87.2293C78.5334 87.2366 78.5245 87.244 78.5158 87.2518C78.5045 87.2618 78.4934 87.2723 78.4825 87.2832C78.4748 87.2908 78.4673 87.2985 78.4599 87.3065C78.4491 87.3181 78.4385 87.3302 78.4282 87.3428C78.4209 87.3516 78.4138 87.3606 78.4069 87.3697C78.3976 87.382 78.3885 87.3944 78.3797 87.4075C78.372 87.4186 78.3647 87.4301 78.3575 87.4417C78.3502 87.4535 78.3431 87.4653 78.3362 87.4776C78.3281 87.492 78.3205 87.5068 78.313 87.5219C78.3096 87.5289 78.3057 87.5353 78.3023 87.5424C78.3005 87.5464 78.2991 87.5506 78.2972 87.5547C78.2898 87.5712 78.2829 87.588 78.2763 87.6051C78.272 87.6163 78.2675 87.6273 78.2635 87.6386C78.2579 87.6547 78.2529 87.6712 78.2479 87.6877C78.244 87.7006 78.24 87.7136 78.2366 87.7267C78.2328 87.7412 78.2297 87.756 78.2266 87.7708C78.2231 87.7864 78.2197 87.8021 78.217 87.8178C78.2148 87.8304 78.2132 87.8432 78.2114 87.856C78.2088 87.8743 78.2064 87.8926 78.2047 87.911C78.2036 87.9223 78.2031 87.9339 78.2024 87.9454C78.2012 87.9653 78.2002 87.9851 78.2 88.0048C78.1999 88.0093 78.1995 88.0135 78.1995 88.0179V96.1039C78.1995 96.6217 78.5325 97.0414 78.9432 97.0414H89.8388C89.8394 97.0414 89.8399 97.0415 89.8404 97.0415C89.8422 97.0415 89.844 97.0411 89.8458 97.041C89.8736 97.0408 89.9011 97.0383 89.9282 97.0344C89.9359 97.0333 89.9436 97.0314 89.9513 97.03C89.9735 97.0258 89.9954 97.0205 90.0169 97.0139C90.0243 97.0117 90.0317 97.0093 90.0391 97.0067C90.0628 96.9985 90.086 96.9888 90.1087 96.9778C90.1131 96.9756 90.1177 96.9738 90.1222 96.9715C90.1493 96.9575 90.1757 96.9418 90.201 96.9239C90.2065 96.9201 90.2117 96.9156 90.2172 96.9116C90.2363 96.8974 90.2549 96.8823 90.2728 96.8662C90.2812 96.8587 90.2894 96.8509 90.2976 96.8428C90.3136 96.827 90.3291 96.8103 90.344 96.793C90.3505 96.7855 90.3572 96.7784 90.3635 96.7707C90.3836 96.7456 90.4025 96.7191 90.4203 96.6913C90.425 96.6838 90.4294 96.6758 90.434 96.6681C90.4485 96.644 90.4619 96.619 90.4746 96.5932C90.4769 96.5883 90.4799 96.5842 90.4821 96.5793C90.4839 96.5753 90.4854 96.5711 90.4872 96.567C90.4947 96.5505 90.5015 96.5337 90.5081 96.5166C90.5124 96.5054 90.517 96.4944 90.5209 96.4831C90.5266 96.467 90.5315 96.4505 90.5365 96.434C90.5404 96.4211 90.5444 96.4081 90.5478 96.395C90.5516 96.3805 90.5547 96.3657 90.5579 96.3509C90.5613 96.3353 90.5647 96.3196 90.5675 96.3039C90.5696 96.2913 90.5713 96.2785 90.573 96.2657C90.5756 96.2474 90.578 96.2291 90.5797 96.2107C90.5808 96.1993 90.5813 96.1878 90.582 96.1763C90.5832 96.1564 90.5842 96.1366 90.5844 96.1168C90.5845 96.1124 90.5849 96.1082 90.5849 96.1038V88.0178C90.5851 87.5003 90.2521 87.0806 89.8414 87.0806ZM79.6871 95.1665V89.6577L87.1117 95.1665H79.6871ZM89.0977 94.4643L81.6731 88.9555H89.0977V94.4643Z" fill="url(#paint10_linear_41_398)"/>
</g>
<defs>
<filter id="filter0_d_41_398" x="0.07164" y="0.875" width="154.57" height="174" filterUnits="userSpaceOnUse" color-interpolation-filters="sRGB">
<feFlood flood-opacity="0" result="BackgroundImageFix"/>
<feColorMatrix in="SourceAlpha" type="matrix" values="0 0 0 0 0 0 0 0 0 0 0 0 0 0 0 0 0 0 127 0" result="hardAlpha"/>
<feOffset dy="4"/>
<feGaussianBlur stdDeviation="20"/>
<feColorMatrix type="matrix" values="0 0 0 0 0 0 0 0 0 0 0 0 0 0 0 0 0 0 0.25 0"/>
<feBlend mode="normal" in2="BackgroundImageFix" result="effect1_dropShadow_41_398"/>
<feBlend mode="normal" in="SourceGraphic" in2="effect1_dropShadow_41_398" result="shape"/>
</filter>
<linearGradient id="paint0_linear_41_398" x1="58.2984" y1="58.6298" x2="101.786" y2="103.309" gradientUnits="userSpaceOnUse">
<stop offset="0.0271195" stop-color="#6C48D3"/>
<stop offset="0.287564" stop-color="#4D4DE2"/>
<stop offset="0.808912" stop-color="#3778FC"/>
<stop offset="0.967351" stop-color="#0370FF"/>
</linearGradient>
<linearGradient id="paint1_linear_41_398" x1="91.1029" y1="64.919" x2="92.992" y2="66.6589" gradientUnits="userSpaceOnUse">
<stop offset="0.0271195" stop-color="#6C48D3"/>
<stop offset="0.287564" stop-color="#4D4DE2"/>
<stop offset="0.808912" stop-color="#3778FC"/>
<stop offset="0.967351" stop-color="#0370FF"/>
</linearGradient>
<linearGradient id="paint2_linear_41_398" x1="73.6873" y1="64.9188" x2="74.0643" y2="68.6728" gradientUnits="userSpaceOnUse">
<stop offset="0.0271195" stop-color="#6C48D3"/>
<stop offset="0.287564" stop-color="#4D4DE2"/>
<stop offset="0.808912" stop-color="#3778FC"/>
<stop offset="0.967351" stop-color="#0370FF"/>
</linearGradient>
<linearGradient id="paint3_linear_41_398" x1="64.8289" y1="64.919" x2="66.7179" y2="66.659" gradientUnits="userSpaceOnUse">
<stop offset="0.0271195" stop-color="#6C48D3"/>
<stop offset="0.287564" stop-color="#4D4DE2"/>
<stop offset="0.808912" stop-color="#3778FC"/>
<stop offset="0.967351" stop-color="#0370FF"/>
</linearGradient>
<linearGradient id="paint4_linear_41_398" x1="67.574" y1="64.919" x2="69.4631" y2="66.6592" gradientUnits="userSpaceOnUse">
<stop offset="0.0271195" stop-color="#6C48D3"/>
<stop offset="0.287564" stop-color="#4D4DE2"/>
<stop offset="0.808912" stop-color="#3778FC"/>
<stop offset="0.967351" stop-color="#0370FF"/>
</linearGradient>
<linearGradient id="paint5_linear_41_398" x1="62.0846" y1="64.9197" x2="63.9731" y2="66.6598" gradientUnits="userSpaceOnUse">
<stop offset="0.0271195" stop-color="#6C48D3"/>
<stop offset="0.287564" stop-color="#4D4DE2"/>
<stop offset="0.808912" stop-color="#3778FC"/>
<stop offset="0.967351" stop-color="#0370FF"/>
</linearGradient>
<linearGradient id="paint6_linear_41_398" x1="61.557" y1="70.6819" x2="88.7608" y2="106.396" gradientUnits="userSpaceOnUse">
<stop offset="0.0271195" stop-color="#6C48D3"/>
<stop offset="0.287564" stop-color="#4D4DE2"/>
<stop offset="0.808912" stop-color="#3778FC"/>
<stop offset="0.967351" stop-color="#0370FF"/>
</linearGradient>
<linearGradient id="paint7_linear_41_398" x1="64.3343" y1="74.6792" x2="84.1119" y2="88.2397" gradientUnits="userSpaceOnUse">
<stop offset="0.0271195" stop-color="#6C48D3"/>
<stop offset="0.287564" stop-color="#4D4DE2"/>
<stop offset="0.808912" stop-color="#3778FC"/>
<stop offset="0.967351" stop-color="#0370FF"/>
</linearGradient>
<linearGradient id="paint8_linear_41_398" x1="66.89" y1="77.761" x2="80.0691" y2="84.9274" gradientUnits="userSpaceOnUse">
<stop offset="0.0271195" stop-color="#6C48D3"/>
<stop offset="0.287564" stop-color="#4D4DE2"/>
<stop offset="0.808912" stop-color="#3778FC"/>
<stop offset="0.967351" stop-color="#0370FF"/>
</linearGradient>
<linearGradient id="paint9_linear_41_398" x1="78.1997" y1="75.4105" x2="87.6296" y2="89.0214" gradientUnits="userSpaceOnUse">
<stop offset="0.0271195" stop-color="#6C48D3"/>
<stop offset="0.287564" stop-color="#4D4DE2"/>
<stop offset="0.808912" stop-color="#3778FC"/>
<stop offset="0.967351" stop-color="#0370FF"/>
</linearGradient>
<linearGradient id="paint10_linear_41_398" x1="78.1995" y1="86.4188" x2="87.6292" y2="100.03" gradientUnits="userSpaceOnUse">
<stop offset="0.0271195" stop-color="#6C48D3"/>
<stop offset="0.287564" stop-color="#4D4DE2"/>
<stop offset="0.808912" stop-color="#3778FC"/>
<stop offset="0.967351" stop-color="#0370FF"/>
</linearGradient>
<clipPath id="clip0_41_398">
<rect width="38.0782" height="48" fill="white" transform="translate(58.2984 59)"/>
</clipPath>
</defs>
</svg>
