<svg width="61" height="62" viewBox="0 0 61 62" fill="none" xmlns="http://www.w3.org/2000/svg">
<path d="M0 30.5C0 13.6553 13.6553 0 30.5 0V0C47.3447 0 61 13.6553 61 30.5V31.5C61 48.3447 47.3447 62 30.5 62V62C13.6553 62 0 48.3447 0 31.5V30.5Z" fill="#FAFAFA"/>
<g clip-path="url(#clip0_44_390)">
<path d="M30.5047 25.6094C27.5234 25.6094 25.1188 28.0141 25.1188 30.9953C25.1188 33.9766 27.5234 36.3812 30.5047 36.3812C33.4859 36.3812 35.8906 33.9766 35.8906 30.9953C35.8906 28.0141 33.4859 25.6094 30.5047 25.6094ZM30.5047 34.4969C28.5781 34.4969 27.0031 32.9266 27.0031 30.9953C27.0031 29.0641 28.5734 27.4937 30.5047 27.4937C32.4359 27.4937 34.0062 29.0641 34.0062 30.9953C34.0062 32.9266 32.4312 34.4969 30.5047 34.4969V34.4969ZM37.3672 25.3891C37.3672 26.0875 36.8047 26.6453 36.1109 26.6453C35.4125 26.6453 34.8547 26.0828 34.8547 25.3891C34.8547 24.6953 35.4172 24.1328 36.1109 24.1328C36.8047 24.1328 37.3672 24.6953 37.3672 25.3891ZM40.9344 26.6641C40.8547 24.9812 40.4703 23.4906 39.2375 22.2625C38.0094 21.0344 36.5187 20.65 34.8359 20.5656C33.1016 20.4672 27.9031 20.4672 26.1688 20.5656C24.4906 20.6453 23 21.0297 21.7672 22.2578C20.5344 23.4859 20.1547 24.9766 20.0703 26.6594C19.9719 28.3937 19.9719 33.5922 20.0703 35.3266C20.15 37.0094 20.5344 38.5 21.7672 39.7281C23 40.9562 24.4859 41.3406 26.1688 41.425C27.9031 41.5234 33.1016 41.5234 34.8359 41.425C36.5187 41.3453 38.0094 40.9609 39.2375 39.7281C40.4656 38.5 40.85 37.0094 40.9344 35.3266C41.0328 33.5922 41.0328 28.3984 40.9344 26.6641V26.6641ZM38.6937 37.1875C38.3281 38.1062 37.6203 38.8141 36.6969 39.1844C35.3141 39.7328 32.0328 39.6062 30.5047 39.6062C28.9766 39.6062 25.6906 39.7281 24.3125 39.1844C23.3938 38.8187 22.6859 38.1109 22.3156 37.1875C21.7672 35.8047 21.8938 32.5234 21.8938 30.9953C21.8938 29.4672 21.7719 26.1812 22.3156 24.8031C22.6813 23.8844 23.3891 23.1766 24.3125 22.8062C25.6953 22.2578 28.9766 22.3844 30.5047 22.3844C32.0328 22.3844 35.3187 22.2625 36.6969 22.8062C37.6156 23.1719 38.3234 23.8797 38.6937 24.8031C39.2422 26.1859 39.1156 29.4672 39.1156 30.9953C39.1156 32.5234 39.2422 35.8094 38.6937 37.1875Z" fill="url(#paint0_linear_44_390)"/>
</g>
<defs>
<linearGradient id="paint0_linear_44_390" x1="19.9965" y1="19.0962" x2="41.0028" y2="43.4866" gradientUnits="userSpaceOnUse">
<stop offset="0.0271195" stop-color="#6C48D3"/>
<stop offset="0.287564" stop-color="#4D4DE2"/>
<stop offset="0.808912" stop-color="#3778FC"/>
<stop offset="0.967351" stop-color="#0370FF"/>
</linearGradient>
<clipPath id="clip0_44_390">
<rect width="21" height="24" fill="white" transform="translate(20 19)"/>
</clipPath>
</defs>
</svg>
