<svg width="62" height="62" viewBox="0 0 62 62" fill="none" xmlns="http://www.w3.org/2000/svg">
<path d="M0 31C0 13.8792 13.8792 0 31 0V0C48.1208 0 62 13.8792 62 31V31C62 48.1208 48.1208 62 31 62V62C13.8792 62 0 48.1208 0 31V31Z" fill="#FAFAFA"/>
<g clip-path="url(#clip0_44_387)">
<path d="M25.2006 40H20.8469V25.9797H25.2006V40ZM23.0214 24.0672C21.6292 24.0672 20.5 22.9141 20.5 21.5219C20.5 20.8532 20.7656 20.2118 21.2385 19.739C21.7114 19.2661 22.3527 19.0005 23.0214 19.0005C23.6901 19.0005 24.3315 19.2661 24.8043 19.739C25.2772 20.2118 25.5428 20.8532 25.5428 21.5219C25.5428 22.9141 24.4131 24.0672 23.0214 24.0672ZM41.4953 40H37.1509V33.175C37.1509 31.5484 37.1181 29.4625 34.8873 29.4625C32.6237 29.4625 32.2769 31.2297 32.2769 33.0578V40H27.9278V25.9797H32.1034V27.8922H32.1644C32.7456 26.7906 34.1655 25.6281 36.2838 25.6281C40.69 25.6281 41.5 28.5297 41.5 32.2984V40H41.4953Z" fill="url(#paint0_linear_44_387)"/>
</g>
<defs>
<linearGradient id="paint0_linear_44_387" x1="20.5" y1="17.6054" x2="41.4994" y2="41.9829" gradientUnits="userSpaceOnUse">
<stop offset="0.0271195" stop-color="#6C48D3"/>
<stop offset="0.287564" stop-color="#4D4DE2"/>
<stop offset="0.808912" stop-color="#3778FC"/>
<stop offset="0.967351" stop-color="#0370FF"/>
</linearGradient>
<clipPath id="clip0_44_387">
<rect width="21" height="24" fill="white" transform="translate(20.5 19)"/>
</clipPath>
</defs>
</svg>
