<svg width="45" height="46" viewBox="0 0 45 46" fill="none" xmlns="http://www.w3.org/2000/svg">
<path d="M0 23C0 10.5736 10.0736 0.5 22.5 0.5C34.9264 0.5 45 10.5736 45 23C45 35.4264 34.9264 45.5 22.5 45.5C10.0736 45.5 0 35.4264 0 23Z" fill="white"/>
<path d="M11.1337 30.3559C10.6923 30.5617 10.1667 30.5765 9.70992 30.3481C8.92379 29.9638 8.62567 29.0209 9.04965 28.2426L11.7568 23.2591C12.104 22.6197 12.846 22.2713 13.5607 22.4202L17.9002 23.2994L20.0093 19.4105C20.3576 18.7682 21.0985 18.4227 21.8143 18.5687L26.1488 19.4526L28.2569 15.5665C28.6052 14.9243 29.3471 14.5759 30.0619 14.7248L35.6044 15.8586C36.4749 16.038 37.0066 16.8696 36.7946 17.7218C36.5808 18.57 35.7079 19.1162 34.8393 18.9408L30.5137 18.0503L28.4075 21.9403C28.0592 22.5825 27.3183 22.928 26.6025 22.782L22.268 21.8982L20.1589 25.7871C19.8106 26.4293 19.0668 26.7738 18.3539 26.6288L14.0125 25.7458L11.8984 29.6394C11.7252 29.9625 11.449 30.2088 11.1337 30.3559Z" fill="url(#paint0_linear_602_355)"/>
<defs>
<linearGradient id="paint0_linear_602_355" x1="16.6362" y1="7.34539" x2="28.8461" y2="39.5846" gradientUnits="userSpaceOnUse">
<stop offset="0.0271195" stop-color="#6C48D3"/>
<stop offset="0.287564" stop-color="#4D4DE2"/>
<stop offset="0.808912" stop-color="#3778FC"/>
<stop offset="0.967351" stop-color="#0370FF"/>
</linearGradient>
</defs>
</svg>
