<svg width="343" height="395" viewBox="0 0 343 395" fill="none" xmlns="http://www.w3.org/2000/svg">
<g filter="url(#filter0_d_54_851)">
<rect x="75.0752" y="91.5" width="88.9236" height="94" rx="10" fill="#FAFAFA"/>
</g>
<g clip-path="url(#clip0_54_851)">
<path d="M129.741 114.5H109.333C107.169 114.5 105.409 116.361 105.409 118.648V158.352C105.409 160.639 107.169 162.5 109.333 162.5H129.741C131.905 162.5 133.665 160.639 133.665 158.352V118.648C133.665 116.361 131.905 114.5 129.741 114.5ZM131.892 158.352C131.892 159.605 130.927 160.625 129.741 160.625H109.333C108.147 160.625 107.182 159.605 107.182 158.352V155.906H131.892V158.352ZM131.892 154.031H107.182V122.969H131.892V154.031ZM131.892 121.094H107.182V118.648C107.182 117.395 108.147 116.375 109.333 116.375H129.741C130.927 116.375 131.892 117.395 131.892 118.648V121.094Z" fill="url(#paint0_linear_54_851)"/>
<path d="M125.824 118.552C125.812 118.492 125.796 118.433 125.773 118.377C125.751 118.319 125.724 118.265 125.692 118.214C125.659 118.163 125.622 118.115 125.581 118.072C125.54 118.029 125.495 117.989 125.446 117.956C125.398 117.922 125.347 117.893 125.294 117.869C125.239 117.846 125.185 117.827 125.128 117.815C125.013 117.791 124.895 117.791 124.781 117.815C124.724 117.827 124.668 117.846 124.615 117.869C124.561 117.893 124.51 117.922 124.462 117.956C124.413 117.989 124.368 118.029 124.327 118.072C124.286 118.115 124.249 118.163 124.217 118.214C124.185 118.265 124.158 118.319 124.135 118.377C124.113 118.433 124.096 118.492 124.085 118.552C124.073 118.612 124.067 118.674 124.067 118.735C124.067 118.796 124.073 118.857 124.085 118.917C124.096 118.977 124.113 119.037 124.135 119.093C124.158 119.15 124.185 119.204 124.217 119.255C124.249 119.307 124.286 119.354 124.327 119.397C124.368 119.441 124.413 119.48 124.462 119.514C124.51 119.547 124.561 119.577 124.615 119.6C124.668 119.623 124.724 119.641 124.781 119.653C124.838 119.666 124.896 119.672 124.954 119.672C125.011 119.672 125.07 119.666 125.128 119.653C125.185 119.641 125.239 119.623 125.294 119.6C125.347 119.577 125.398 119.547 125.446 119.514C125.495 119.48 125.54 119.441 125.581 119.397C125.622 119.354 125.659 119.307 125.692 119.255C125.724 119.204 125.751 119.15 125.773 119.093C125.796 119.037 125.812 118.977 125.824 118.917C125.835 118.857 125.841 118.796 125.841 118.735C125.841 118.674 125.835 118.612 125.824 118.552Z" fill="url(#paint1_linear_54_851)"/>
<path d="M121.584 117.797H114.12C113.63 117.797 113.233 118.217 113.233 118.735C113.233 119.252 113.63 119.672 114.12 119.672H121.584C122.074 119.672 122.471 119.252 122.471 118.735C122.471 118.217 122.074 117.797 121.584 117.797Z" fill="url(#paint2_linear_54_851)"/>
<path d="M120.706 157.328H118.368C117.879 157.328 117.482 157.748 117.482 158.265C117.482 158.783 117.879 159.203 118.368 159.203H120.706C121.195 159.203 121.593 158.783 121.593 158.265C121.593 157.748 121.195 157.328 120.706 157.328Z" fill="url(#paint3_linear_54_851)"/>
<path d="M111.257 151.382C111.246 151.322 111.229 151.263 111.207 151.207C111.185 151.15 111.157 151.095 111.125 151.045C111.092 150.993 111.055 150.945 111.014 150.902C110.809 150.685 110.503 150.584 110.214 150.646C110.158 150.657 110.102 150.676 110.048 150.7C109.994 150.723 109.943 150.752 109.895 150.786C109.846 150.82 109.801 150.859 109.76 150.902C109.719 150.945 109.682 150.993 109.65 151.045C109.618 151.095 109.591 151.15 109.569 151.207C109.546 151.263 109.53 151.322 109.518 151.382C109.507 151.442 109.5 151.504 109.5 151.565C109.5 151.626 109.507 151.688 109.518 151.748C109.53 151.808 109.546 151.867 109.569 151.924C109.591 151.98 109.618 152.035 109.65 152.085C109.682 152.137 109.719 152.185 109.76 152.228C109.801 152.271 109.846 152.31 109.895 152.344C109.943 152.379 109.994 152.407 110.048 152.43C110.102 152.454 110.158 152.472 110.214 152.484C110.271 152.496 110.33 152.502 110.387 152.502C110.621 152.502 110.849 152.402 111.014 152.228C111.18 152.053 111.274 151.812 111.274 151.565C111.274 151.504 111.269 151.442 111.257 151.382Z" fill="url(#paint4_linear_54_851)"/>
<path d="M128.687 150.627H113.758C113.268 150.627 112.871 151.047 112.871 151.565C112.871 152.083 113.268 152.502 113.758 152.502H128.687C129.176 152.502 129.574 152.083 129.574 151.565C129.574 151.047 129.176 150.627 128.687 150.627Z" fill="url(#paint5_linear_54_851)"/>
<path d="M122.528 130.456C123.027 129.778 123.326 128.926 123.326 128.002C123.326 125.793 121.626 123.997 119.537 123.997C117.448 123.997 115.748 125.793 115.748 128.002C115.748 128.926 116.046 129.778 116.546 130.456C115.814 130.891 115.318 131.719 115.318 132.667V134.956C115.318 135.474 115.715 135.894 116.205 135.894H122.869C123.358 135.894 123.756 135.474 123.756 134.956V132.667C123.756 131.719 123.26 130.891 122.528 130.456ZM119.537 125.872C120.648 125.872 121.552 126.827 121.552 128.002C121.552 129.176 120.648 130.132 119.537 130.132C118.426 130.132 117.522 129.177 117.522 128.002C117.522 126.827 118.426 125.872 119.537 125.872ZM121.982 134.019H117.092V132.667C117.092 132.303 117.372 132.007 117.717 132.007H121.357C121.702 132.007 121.982 132.303 121.982 132.667V134.019Z" fill="url(#paint6_linear_54_851)"/>
<path d="M128.758 137H110.317C109.827 137 109.43 137.42 109.43 137.937V141.781C109.43 142.299 109.827 142.719 110.317 142.719H128.757C129.247 142.719 129.644 142.299 129.644 141.781V137.937C129.644 137.42 129.247 137 128.758 137ZM111.204 140.844V138.875H127.871V140.844H111.204Z" fill="url(#paint7_linear_54_851)"/>
<path d="M128.758 143.75H110.317C109.827 143.75 109.43 144.17 109.43 144.687V148.531C109.43 149.049 109.827 149.469 110.317 149.469H128.757C129.247 149.469 129.644 149.049 129.644 148.531V144.687C129.644 144.17 129.247 143.75 128.758 143.75ZM111.204 147.594V145.625H127.871V147.594H111.204Z" fill="url(#paint8_linear_54_851)"/>
</g>
<g filter="url(#filter1_d_54_851)">
<rect x="75.0752" y="201.5" width="88.9236" height="94" rx="10" fill="#FAFAFA"/>
</g>
<g clip-path="url(#clip1_54_851)">
<path d="M139.258 226.113H99.7706C98.1385 226.113 96.8105 227.517 96.8105 229.242V266.008C96.8105 267.733 98.1385 269.137 99.7706 269.137H139.258C140.89 269.137 142.218 267.733 142.218 266.008V229.242C142.218 227.517 140.89 226.113 139.258 226.113ZM140.445 266.008C140.445 266.699 139.912 267.262 139.258 267.262H99.7706C99.1164 267.262 98.5843 266.699 98.5843 266.008V235.077H140.445V266.008ZM140.445 233.202H98.5843V229.242C98.5843 228.551 99.1164 227.988 99.7706 227.988H139.258C139.912 227.988 140.445 228.55 140.445 229.242V233.202Z" fill="url(#paint9_linear_54_851)"/>
<path d="M137.685 230.423C137.675 230.363 137.657 230.304 137.635 230.247C137.613 230.191 137.586 230.136 137.554 230.085C137.522 230.034 137.484 229.986 137.443 229.943C137.403 229.9 137.357 229.86 137.309 229.827C137.261 229.793 137.209 229.764 137.156 229.74C137.102 229.717 137.046 229.699 136.99 229.687C136.876 229.662 136.758 229.662 136.643 229.687C136.587 229.699 136.531 229.717 136.478 229.74C136.424 229.764 136.372 229.793 136.324 229.827C136.275 229.86 136.23 229.9 136.189 229.943C136.149 229.986 136.111 230.034 136.079 230.085C136.048 230.136 136.02 230.191 135.998 230.247C135.976 230.304 135.959 230.363 135.947 230.423C135.936 230.483 135.93 230.545 135.93 230.606C135.93 230.667 135.936 230.728 135.947 230.789C135.959 230.849 135.976 230.907 135.998 230.965C136.02 231.021 136.048 231.075 136.079 231.126C136.111 231.177 136.149 231.225 136.189 231.268C136.23 231.312 136.275 231.351 136.324 231.386C136.372 231.419 136.424 231.448 136.478 231.472C136.531 231.495 136.587 231.513 136.643 231.525C136.7 231.537 136.759 231.543 136.816 231.543C137.05 231.543 137.278 231.444 137.443 231.268C137.484 231.225 137.521 231.177 137.554 231.126C137.586 231.075 137.613 231.021 137.635 230.965C137.657 230.907 137.675 230.849 137.685 230.789C137.697 230.728 137.703 230.667 137.703 230.606C137.703 230.545 137.697 230.483 137.685 230.423Z" fill="url(#paint10_linear_54_851)"/>
<path d="M133.456 229.668H116.049C115.559 229.668 115.162 230.088 115.162 230.606C115.162 231.124 115.559 231.543 116.049 231.543H133.456C133.946 231.543 134.343 231.124 134.343 230.606C134.343 230.088 133.946 229.668 133.456 229.668Z" fill="url(#paint11_linear_54_851)"/>
<path d="M106.355 230.423C106.344 230.363 106.327 230.304 106.304 230.247C106.282 230.191 106.255 230.136 106.223 230.085C106.19 230.034 106.154 229.986 106.112 229.943C106.071 229.9 106.026 229.86 105.977 229.827C105.929 229.793 105.878 229.764 105.825 229.74C105.771 229.717 105.715 229.699 105.659 229.687C105.544 229.662 105.426 229.662 105.312 229.687C105.255 229.699 105.199 229.717 105.146 229.74C105.092 229.764 105.041 229.793 104.993 229.827C104.944 229.86 104.899 229.9 104.858 229.943C104.817 229.986 104.78 230.034 104.748 230.085C104.716 230.136 104.689 230.191 104.666 230.247C104.644 230.304 104.627 230.363 104.616 230.423C104.604 230.483 104.598 230.545 104.598 230.606C104.598 230.667 104.604 230.728 104.616 230.789C104.627 230.848 104.644 230.907 104.666 230.965C104.689 231.021 104.716 231.075 104.748 231.126C104.78 231.177 104.817 231.225 104.858 231.268C104.899 231.312 104.944 231.351 104.993 231.386C105.041 231.419 105.092 231.448 105.146 231.472C105.199 231.495 105.255 231.513 105.312 231.525C105.369 231.537 105.427 231.543 105.485 231.543C105.543 231.543 105.601 231.537 105.659 231.525C105.715 231.513 105.771 231.495 105.825 231.472C105.878 231.448 105.929 231.419 105.977 231.386C106.026 231.351 106.071 231.312 106.112 231.268C106.153 231.225 106.19 231.177 106.223 231.126C106.255 231.075 106.282 231.021 106.304 230.965C106.327 230.907 106.343 230.849 106.355 230.789C106.367 230.728 106.372 230.667 106.372 230.606C106.372 230.545 106.366 230.483 106.355 230.423Z" fill="url(#paint12_linear_54_851)"/>
<path d="M109.628 230.423C109.617 230.363 109.599 230.304 109.577 230.247C109.555 230.19 109.527 230.136 109.496 230.085C109.464 230.034 109.426 229.986 109.386 229.943C109.345 229.9 109.299 229.86 109.251 229.827C109.203 229.793 109.151 229.764 109.097 229.74C109.044 229.717 108.988 229.699 108.931 229.687C108.817 229.662 108.7 229.662 108.585 229.687C108.529 229.699 108.473 229.717 108.419 229.74C108.366 229.764 108.314 229.793 108.266 229.827C108.218 229.86 108.172 229.9 108.131 229.943C108.091 229.986 108.053 230.034 108.021 230.085C107.989 230.136 107.961 230.19 107.939 230.247C107.917 230.304 107.9 230.363 107.888 230.423C107.877 230.483 107.872 230.545 107.872 230.606C107.872 230.853 107.967 231.094 108.131 231.268C108.172 231.312 108.218 231.351 108.266 231.386C108.314 231.419 108.366 231.448 108.419 231.472C108.473 231.495 108.529 231.513 108.585 231.525C108.642 231.537 108.701 231.543 108.759 231.543C108.816 231.543 108.875 231.537 108.932 231.525C108.988 231.513 109.044 231.495 109.097 231.472C109.151 231.448 109.203 231.419 109.251 231.386C109.3 231.351 109.345 231.312 109.386 231.268C109.55 231.094 109.645 230.853 109.645 230.606C109.645 230.545 109.639 230.483 109.628 230.423Z" fill="url(#paint13_linear_54_851)"/>
<path d="M102.839 229.943C102.634 229.725 102.327 229.626 102.039 229.687C101.983 229.699 101.927 229.717 101.873 229.74C101.819 229.764 101.768 229.793 101.72 229.827C101.671 229.86 101.626 229.9 101.585 229.943C101.545 229.986 101.507 230.034 101.474 230.085C101.443 230.136 101.415 230.19 101.393 230.247C101.371 230.304 101.354 230.363 101.342 230.423C101.331 230.483 101.326 230.545 101.326 230.606C101.326 230.667 101.331 230.728 101.342 230.789C101.354 230.848 101.371 230.907 101.393 230.965C101.415 231.021 101.443 231.075 101.474 231.126C101.507 231.177 101.545 231.225 101.585 231.268C101.626 231.312 101.671 231.351 101.72 231.386C101.768 231.419 101.819 231.448 101.873 231.472C101.927 231.495 101.983 231.513 102.039 231.525C102.096 231.537 102.155 231.543 102.212 231.543C102.446 231.543 102.674 231.444 102.839 231.268C103.004 231.094 103.099 230.852 103.099 230.606C103.099 230.359 103.004 230.117 102.839 229.943Z" fill="url(#paint14_linear_54_851)"/>
<path d="M137.446 237.161H101.583C101.094 237.161 100.696 237.581 100.696 238.098V264.13C100.696 264.648 101.094 265.068 101.583 265.068H137.446C137.935 265.068 138.332 264.648 138.332 264.13V238.098C138.332 237.581 137.935 237.161 137.446 237.161ZM136.559 263.193H102.47V239.036H136.559V263.193Z" fill="url(#paint15_linear_54_851)"/>
<path d="M117.891 240.697H104.895C104.406 240.697 104.008 241.117 104.008 241.635V260.729C104.008 261.247 104.406 261.666 104.895 261.666H117.891C118.381 261.666 118.778 261.247 118.778 260.729V241.635C118.778 241.117 118.381 240.697 117.891 240.697ZM117.004 259.792H105.782V242.572H117.004V259.792Z" fill="url(#paint16_linear_54_851)"/>
<path d="M112.398 251.182L115.625 244.797C115.856 244.34 115.693 243.772 115.261 243.528C114.829 243.284 114.291 243.457 114.061 243.914L111.393 249.192L108.725 243.914C108.494 243.457 107.957 243.284 107.525 243.528C107.093 243.772 106.93 244.34 107.161 244.797L110.388 251.182L107.161 257.567C106.93 258.023 107.093 258.591 107.525 258.835C107.658 258.911 107.801 258.946 107.942 258.946C108.259 258.946 108.565 258.766 108.725 258.45L111.393 253.172L114.061 258.45C114.22 258.766 114.527 258.946 114.844 258.946C114.985 258.946 115.128 258.911 115.261 258.835C115.693 258.591 115.856 258.023 115.625 257.567L112.398 251.182Z" fill="url(#paint17_linear_54_851)"/>
<path d="M134.425 240.697H121.429C121.422 240.697 121.414 240.698 121.406 240.698C121.39 240.699 121.373 240.7 121.356 240.701C121.342 240.702 121.328 240.704 121.314 240.706C121.3 240.708 121.286 240.71 121.273 240.713C121.257 240.716 121.241 240.719 121.225 240.723C121.214 240.726 121.202 240.729 121.191 240.733C121.174 240.738 121.158 240.743 121.142 240.749C121.131 240.753 121.12 240.757 121.109 240.761C121.094 240.768 121.078 240.774 121.063 240.782C121.052 240.787 121.04 240.793 121.029 240.799C121.015 240.806 121.002 240.814 120.989 240.822C120.977 240.829 120.964 240.837 120.952 240.846C120.941 240.853 120.93 240.861 120.919 240.869C120.906 240.879 120.893 240.889 120.88 240.9C120.871 240.907 120.862 240.915 120.853 240.923C120.84 240.935 120.828 240.947 120.816 240.959C120.807 240.968 120.798 240.977 120.79 240.987C120.779 240.999 120.768 241.011 120.758 241.024C120.748 241.035 120.74 241.047 120.731 241.059C120.722 241.07 120.714 241.082 120.706 241.094C120.696 241.109 120.687 241.124 120.678 241.139C120.674 241.146 120.669 241.152 120.665 241.159C120.663 241.163 120.661 241.168 120.659 241.172C120.65 241.188 120.642 241.205 120.634 241.222C120.629 241.233 120.624 241.244 120.619 241.255C120.612 241.272 120.606 241.288 120.6 241.305C120.596 241.318 120.591 241.33 120.587 241.344C120.582 241.358 120.579 241.373 120.575 241.388C120.571 241.403 120.567 241.419 120.563 241.435C120.561 241.447 120.559 241.46 120.557 241.473C120.554 241.491 120.551 241.51 120.549 241.528C120.548 241.539 120.547 241.551 120.546 241.562C120.545 241.582 120.543 241.602 120.543 241.622C120.543 241.626 120.543 241.63 120.543 241.635V249.721C120.543 250.239 120.94 250.658 121.429 250.658H134.422C134.423 250.658 134.424 250.658 134.424 250.658C134.426 250.658 134.429 250.658 134.431 250.658C134.464 250.658 134.497 250.655 134.529 250.651C134.538 250.65 134.547 250.648 134.556 250.647C134.583 250.643 134.609 250.637 134.635 250.631C134.644 250.629 134.652 250.626 134.661 250.624C134.689 250.615 134.717 250.606 134.744 250.595C134.749 250.592 134.755 250.591 134.76 250.588C134.793 250.574 134.824 250.559 134.854 250.541C134.861 250.537 134.867 250.532 134.874 250.528C134.896 250.514 134.919 250.499 134.94 250.483C134.95 250.476 134.96 250.468 134.969 250.46C134.989 250.444 135.007 250.427 135.025 250.41C135.033 250.402 135.041 250.395 135.048 250.388C135.072 250.363 135.095 250.336 135.116 250.308C135.121 250.301 135.127 250.293 135.132 250.285C135.149 250.261 135.165 250.236 135.18 250.21C135.183 250.205 135.187 250.201 135.189 250.196C135.192 250.192 135.193 250.188 135.196 250.184C135.204 250.167 135.213 250.151 135.22 250.133C135.226 250.122 135.231 250.111 135.236 250.1C135.242 250.084 135.248 250.067 135.254 250.051C135.259 250.038 135.264 250.025 135.268 250.012C135.272 249.997 135.276 249.983 135.28 249.968C135.284 249.952 135.288 249.937 135.291 249.921C135.294 249.908 135.296 249.895 135.298 249.883C135.301 249.864 135.304 249.846 135.306 249.828C135.307 249.816 135.308 249.805 135.309 249.793C135.31 249.773 135.311 249.754 135.311 249.734C135.312 249.729 135.312 249.725 135.312 249.721V241.635C135.312 241.117 134.915 240.697 134.425 240.697ZM122.316 248.783V243.275L131.17 248.783H122.316ZM133.538 248.081L124.685 242.572H133.538V248.081Z" fill="url(#paint18_linear_54_851)"/>
<path d="M134.425 251.706H121.429C121.422 251.706 121.415 251.707 121.407 251.707C121.39 251.707 121.373 251.708 121.356 251.71C121.342 251.711 121.328 251.712 121.315 251.714C121.3 251.716 121.286 251.718 121.272 251.721C121.257 251.724 121.241 251.728 121.226 251.731C121.214 251.734 121.202 251.738 121.19 251.741C121.174 251.746 121.158 251.751 121.142 251.757C121.131 251.761 121.12 251.765 121.108 251.77C121.093 251.776 121.078 251.783 121.064 251.79C121.052 251.795 121.04 251.801 121.028 251.808C121.015 251.815 121.002 251.822 120.99 251.83C120.977 251.837 120.964 251.846 120.951 251.854C120.941 251.862 120.93 251.869 120.92 251.877C120.906 251.887 120.893 251.897 120.88 251.908C120.871 251.916 120.862 251.924 120.853 251.932C120.84 251.943 120.827 251.955 120.815 251.968C120.806 251.977 120.798 251.986 120.79 251.995C120.779 252.007 120.768 252.019 120.757 252.032C120.748 252.044 120.739 252.055 120.731 252.067C120.722 252.079 120.714 252.09 120.705 252.103C120.696 252.117 120.687 252.132 120.678 252.147C120.674 252.154 120.669 252.16 120.665 252.167C120.663 252.171 120.661 252.176 120.659 252.18C120.65 252.196 120.642 252.213 120.634 252.23C120.629 252.241 120.623 252.252 120.619 252.264C120.612 252.28 120.606 252.296 120.6 252.313C120.595 252.326 120.591 252.339 120.587 252.352C120.582 252.366 120.578 252.381 120.575 252.396C120.571 252.411 120.566 252.427 120.563 252.443C120.561 252.455 120.559 252.468 120.557 252.481C120.554 252.499 120.551 252.518 120.549 252.536C120.547 252.547 120.547 252.559 120.546 252.57C120.544 252.59 120.543 252.61 120.543 252.63C120.543 252.634 120.542 252.638 120.542 252.643V260.729C120.542 261.247 120.939 261.666 121.429 261.666H134.422C134.423 261.666 134.423 261.667 134.424 261.667C134.426 261.667 134.428 261.666 134.43 261.666C134.464 261.666 134.496 261.663 134.529 261.659C134.538 261.658 134.547 261.656 134.556 261.655C134.583 261.651 134.609 261.646 134.634 261.639C134.643 261.637 134.652 261.634 134.661 261.632C134.689 261.623 134.717 261.614 134.744 261.603C134.749 261.601 134.755 261.599 134.76 261.596C134.792 261.583 134.824 261.567 134.854 261.549C134.861 261.545 134.867 261.541 134.873 261.537C134.896 261.522 134.918 261.507 134.94 261.491C134.95 261.484 134.959 261.476 134.969 261.468C134.988 261.452 135.007 261.435 135.025 261.418C135.032 261.41 135.04 261.403 135.048 261.396C135.072 261.371 135.094 261.344 135.116 261.316C135.121 261.309 135.126 261.301 135.132 261.293C135.149 261.269 135.165 261.244 135.18 261.218C135.183 261.213 135.187 261.209 135.189 261.204C135.191 261.2 135.193 261.196 135.195 261.192C135.204 261.176 135.212 261.159 135.22 261.142C135.225 261.13 135.231 261.119 135.236 261.108C135.242 261.092 135.248 261.076 135.254 261.059C135.259 261.046 135.264 261.033 135.268 261.02C135.272 261.005 135.276 260.991 135.28 260.976C135.284 260.96 135.288 260.945 135.291 260.929C135.294 260.916 135.296 260.903 135.298 260.891C135.301 260.872 135.304 260.854 135.306 260.836C135.307 260.824 135.308 260.813 135.308 260.801C135.31 260.781 135.311 260.762 135.311 260.742C135.311 260.737 135.312 260.733 135.312 260.729V252.643C135.312 252.125 134.915 251.706 134.425 251.706ZM122.316 259.792V254.283L131.17 259.792H122.316ZM133.538 259.089L124.685 253.58H133.538V259.089Z" fill="url(#paint19_linear_54_851)"/>
</g>
<g filter="url(#filter2_d_54_851)">
<rect x="178.999" y="36.5" width="88.9236" height="94" rx="10" fill="#FAFAFA"/>
</g>
<g clip-path="url(#clip2_54_851)">
<path d="M245.659 74.1613V63.3425C245.659 61.6359 244.328 60.2474 242.692 60.2474H203.252C201.616 60.2474 200.286 61.6359 200.286 63.3425V98.6966C200.286 100.425 201.616 101.832 203.252 101.832H222.758V104.099C222.758 106.386 224.518 108.247 226.682 108.247H241.769C243.933 108.247 245.694 106.386 245.694 104.099V74.7081C245.694 74.5227 245.681 74.3404 245.659 74.1613ZM202.06 63.3425C202.06 62.6583 202.583 62.1224 203.252 62.1224H242.692C243.361 62.1224 243.885 62.6583 243.885 63.3425V71.217C243.388 70.8792 242.814 70.6564 242.199 70.5852C242.198 70.5852 242.198 70.5851 242.198 70.5851C242.17 70.5819 242.141 70.5794 242.113 70.5768C242.113 70.5767 242.112 70.5766 242.111 70.5766V64.8946C242.111 64.3769 241.714 63.9571 241.224 63.9571H204.72C204.23 63.9571 203.833 64.3769 203.833 64.8946V92.8473H202.06V63.3425ZM222.758 96.3912H213.897C213.407 96.3912 213.01 96.811 213.01 97.3287C213.01 97.8464 213.407 98.2662 213.897 98.2662H222.758V99.9571H203.252C202.595 99.9571 202.06 99.3917 202.06 98.6966V94.7223H222.758V96.3912ZM222.758 89.4605H210.113V85.6129H222.758V89.4605ZM223.328 72.5573C223.328 72.5581 223.327 72.5588 223.327 72.5596C223.297 72.6103 223.27 72.662 223.242 72.7142C223.234 72.7295 223.227 72.7451 223.219 72.7606C223.199 72.8006 223.179 72.8411 223.16 72.8819C223.153 72.8967 223.146 72.9114 223.139 72.9263C223.115 72.9801 223.092 73.0345 223.069 73.0896C223.066 73.0986 223.062 73.1078 223.059 73.1169C223.04 73.1639 223.023 73.2113 223.006 73.2592C223 73.2765 222.994 73.2939 222.988 73.3113C222.972 73.3559 222.958 73.4009 222.944 73.4462C222.94 73.4598 222.936 73.4732 222.932 73.4868C222.915 73.5446 222.899 73.6028 222.885 73.6616C222.881 73.6755 222.878 73.6894 222.875 73.7033C222.864 73.7499 222.854 73.7969 222.844 73.8441C222.841 73.8623 222.837 73.8805 222.834 73.8987C222.824 73.9502 222.815 74.0019 222.807 74.054C222.806 74.0638 222.804 74.0733 222.803 74.0831C222.794 74.1442 222.787 74.2059 222.781 74.2679C222.779 74.2846 222.778 74.3014 222.776 74.3182C222.772 74.3659 222.768 74.4139 222.766 74.4621C222.765 74.4804 222.764 74.4986 222.763 74.517C222.76 74.5804 222.758 74.6441 222.758 74.7082V80.6486H210.113V72.4349H223.401C223.376 72.4752 223.352 72.516 223.328 72.5573ZM209.227 70.5599C208.737 70.5599 208.34 70.9797 208.34 71.4974V81.586C208.34 82.1037 208.737 82.5235 209.227 82.5235H222.758V83.7379H209.227C208.737 83.7379 208.34 84.1578 208.34 84.6754V90.398C208.34 90.9157 208.737 91.3355 209.227 91.3355H222.758V92.8473H205.607V65.8321H240.337V70.5599H209.227ZM243.92 104.099C243.92 105.353 242.955 106.372 241.769 106.372H226.682C225.497 106.372 224.532 105.353 224.532 104.099V102.591H243.92V104.099ZM243.92 100.716H224.532V78.0917H243.92V100.716ZM243.92 76.2166H224.532V74.708C224.532 73.4546 225.497 72.4348 226.682 72.4348H241.224H241.769C241.832 72.4348 241.895 72.4382 241.957 72.444C241.961 72.4443 241.965 72.4445 241.969 72.445C242.739 72.5222 243.41 73.04 243.726 73.7672C243.729 73.7726 243.731 73.778 243.733 73.7835C243.756 73.8378 243.777 73.8933 243.796 73.9498C243.8 73.9604 243.803 73.9712 243.807 73.9818C243.824 74.0361 243.84 74.0912 243.854 74.1473C243.856 74.1583 243.858 74.1694 243.861 74.1804C243.873 74.2353 243.884 74.2908 243.893 74.3473C243.911 74.4648 243.92 74.5852 243.92 74.708V76.2166Z" fill="url(#paint20_linear_54_851)"/>
<path d="M238.739 74.1429C238.727 74.083 238.711 74.0239 238.688 73.9668C238.666 73.9105 238.639 73.8561 238.607 73.8055C238.575 73.7538 238.538 73.706 238.497 73.6629C238.456 73.6198 238.411 73.5804 238.362 73.5467C238.314 73.513 238.262 73.4838 238.209 73.4604C238.155 73.437 238.1 73.4183 238.043 73.406C237.928 73.3817 237.81 73.3817 237.696 73.406C237.64 73.4183 237.584 73.437 237.53 73.4604C237.477 73.4838 237.425 73.513 237.378 73.5467C237.329 73.5804 237.284 73.6198 237.243 73.6629C237.077 73.8373 236.983 74.0792 236.983 74.3257C236.983 74.3866 236.988 74.4485 237 74.5085C237.011 74.5685 237.028 74.6276 237.05 74.6838C237.072 74.7409 237.1 74.7953 237.132 74.8459C237.165 74.8975 237.202 74.9454 237.243 74.9885C237.283 75.0317 237.329 75.071 237.377 75.1047C237.425 75.1384 237.477 75.1675 237.53 75.1909C237.584 75.2144 237.64 75.2331 237.696 75.2444C237.754 75.2566 237.812 75.2631 237.87 75.2631C237.927 75.2631 237.986 75.2566 238.043 75.2444C238.099 75.2331 238.155 75.2144 238.208 75.1909C238.262 75.1675 238.314 75.1384 238.362 75.1047C238.411 75.071 238.456 75.0317 238.497 74.9885C238.537 74.9454 238.575 74.8975 238.607 74.8459C238.639 74.7953 238.666 74.7409 238.688 74.6838C238.71 74.6275 238.727 74.5685 238.739 74.5085C238.75 74.4484 238.756 74.3866 238.756 74.3257C238.756 74.2648 238.75 74.2028 238.739 74.1429Z" fill="url(#paint21_linear_54_851)"/>
<path d="M234.499 73.3883H230.582C230.093 73.3883 229.695 73.8081 229.695 74.3258C229.695 74.8435 230.093 75.2633 230.582 75.2633H234.499C234.989 75.2633 235.386 74.8435 235.386 74.3258C235.386 73.8081 234.989 73.3883 234.499 73.3883Z" fill="url(#paint22_linear_54_851)"/>
<path d="M235.395 103.544H233.057C232.568 103.544 232.17 103.964 232.17 104.481C232.17 104.999 232.567 105.419 233.057 105.419H235.395C235.884 105.419 236.281 104.999 236.281 104.481C236.281 103.964 235.884 103.544 235.395 103.544Z" fill="url(#paint23_linear_54_851)"/>
<path d="M213.221 76.5237L214.146 75.546C214.492 75.1799 214.492 74.5862 214.146 74.2201C213.799 73.8541 213.238 73.8541 212.891 74.2201L211.339 75.8607C210.993 76.2268 210.993 76.8204 211.339 77.1866L212.891 78.8273C213.065 79.0103 213.292 79.1019 213.519 79.1019C213.746 79.1019 213.973 79.0103 214.146 78.8273C214.492 78.4612 214.492 77.8676 214.146 77.5014L213.221 76.5237Z" fill="url(#paint24_linear_54_851)"/>
<path d="M216.91 67.6068C216.898 67.5467 216.881 67.4876 216.859 67.4314C216.837 67.3743 216.809 67.3199 216.777 67.2693C216.745 67.2177 216.708 67.1699 216.667 67.1268C216.627 67.0836 216.581 67.0443 216.533 67.0105C216.484 66.9769 216.432 66.9477 216.379 66.9243C216.326 66.9008 216.27 66.8831 216.213 66.8708C216.099 66.8464 215.981 66.8464 215.867 66.8708C215.81 66.8831 215.754 66.9008 215.701 66.9243C215.648 66.9477 215.596 66.9769 215.547 67.0105C215.499 67.0443 215.453 67.0836 215.413 67.1268C215.372 67.1699 215.335 67.2177 215.303 67.2693C215.271 67.3199 215.243 67.3743 215.221 67.4314C215.199 67.4877 215.182 67.5467 215.17 67.6068C215.159 67.6668 215.153 67.7286 215.153 67.7896C215.153 67.8504 215.159 67.9124 215.17 67.9723C215.182 68.0324 215.199 68.0914 215.221 68.1486C215.243 68.2049 215.271 68.2593 215.303 68.3099C215.335 68.3614 215.372 68.4093 215.413 68.4524C215.453 68.4955 215.499 68.5349 215.547 68.5696C215.596 68.6033 215.648 68.6324 215.701 68.6558C215.754 68.6783 215.81 68.6971 215.867 68.7084C215.924 68.7206 215.982 68.7272 216.04 68.7272C216.098 68.7272 216.156 68.7206 216.213 68.7084C216.27 68.6972 216.326 68.6784 216.379 68.6558C216.432 68.6324 216.484 68.6033 216.533 68.5696C216.581 68.5349 216.627 68.4955 216.667 68.4524C216.708 68.4093 216.745 68.3614 216.777 68.3099C216.809 68.2593 216.837 68.2049 216.859 68.1486C216.881 68.0914 216.898 68.0324 216.91 67.9723C216.921 67.9123 216.926 67.8504 216.926 67.7896C216.926 67.7286 216.921 67.6667 216.91 67.6068Z" fill="url(#paint25_linear_54_851)"/>
<path d="M229.905 66.8522H219.41C218.92 66.8522 218.523 67.272 218.523 67.7897C218.523 68.3074 218.92 68.7272 219.41 68.7272H229.905C230.394 68.7272 230.792 68.3074 230.792 67.7897C230.792 67.272 230.394 66.8522 229.905 66.8522Z" fill="url(#paint26_linear_54_851)"/>
<path d="M241.32 79.4666H227.132C226.642 79.4666 226.245 79.8864 226.245 80.4041V89.5912C226.245 90.1089 226.642 90.5287 227.132 90.5287H241.32C241.81 90.5287 242.207 90.1089 242.207 89.5912V80.4041C242.207 79.8863 241.81 79.4666 241.32 79.4666ZM228.019 88.6537V81.3416H240.433V88.6537H228.019Z" fill="url(#paint27_linear_54_851)"/>
<path d="M241.32 92.2119H227.132C226.642 92.2119 226.245 92.6317 226.245 93.1494V98.8719C226.245 99.3896 226.642 99.8094 227.132 99.8094H241.32C241.81 99.8094 242.207 99.3896 242.207 98.8719V93.1494C242.207 92.6317 241.81 92.2119 241.32 92.2119ZM228.019 97.9344V94.0869H240.433V97.9344H228.019Z" fill="url(#paint28_linear_54_851)"/>
<path d="M239.226 84.3347L237.674 82.6941C237.327 82.3281 236.766 82.3281 236.42 82.6941C236.073 83.0602 236.073 83.6538 236.42 84.02L237.344 84.9977L236.42 85.9754C236.073 86.3415 236.073 86.9351 236.42 87.3012C236.593 87.4842 236.82 87.5758 237.047 87.5758C237.274 87.5758 237.501 87.4842 237.674 87.3012L239.226 85.6606C239.572 85.2945 239.572 84.7009 239.226 84.3347Z" fill="url(#paint29_linear_54_851)"/>
<path d="M231.126 84.9976L232.051 84.0198C232.397 83.6537 232.397 83.0601 232.051 82.6939C231.704 82.3279 231.143 82.3279 230.797 82.6939L229.245 84.3346C228.898 84.7007 228.898 85.2943 229.245 85.6605L230.797 87.3012C230.97 87.4842 231.197 87.5758 231.424 87.5758C231.651 87.5758 231.878 87.4842 232.051 87.3012C232.397 86.9351 232.397 86.3415 232.051 85.9753L231.126 84.9976Z" fill="url(#paint30_linear_54_851)"/>
</g>
<g filter="url(#filter3_d_54_851)">
<rect x="178.999" y="146.5" width="88.9236" height="94" rx="10" fill="#FAFAFA"/>
</g>
<g clip-path="url(#clip3_54_851)">
<path d="M235.664 206.3H234.15V209.5H220.528V211.1H234.15V213.5C234.15 214.825 233.134 215.9 231.88 215.9H215.23C214.419 215.899 213.67 215.442 213.263 214.7L211.952 215.5C212.63 216.736 213.879 217.497 215.23 217.5H231.88C233.969 217.497 235.661 215.708 235.664 213.5V206.3Z" fill="url(#paint31_linear_54_851)"/>
<path d="M222.798 212.7H224.312V214.3H222.798V212.7Z" fill="url(#paint32_linear_54_851)"/>
<path d="M227.339 191.1V189.5H225.03C224.653 184.395 220.817 180.339 215.987 179.941V177.5H214.474V179.941C213.964 179.982 213.458 180.066 212.96 180.19V175.9H225.069V174.3H212.96V173.5C212.96 172.175 213.977 171.1 215.23 171.1H231.88C232.433 171.1 232.967 171.313 233.381 171.7L234.383 170.5C233.692 169.855 232.801 169.5 231.88 169.5H215.23C213.141 169.503 211.449 171.292 211.446 173.5V180.7C208.039 182.209 205.716 185.606 205.43 189.5H203.122V191.1H205.432C205.789 196.215 209.635 200.283 214.474 200.663V203.1H215.987V200.663C220.826 200.283 224.671 196.215 225.028 191.1H227.339ZM214.474 197.5V199.063C213.418 198.963 212.39 198.649 211.446 198.14V196.7C211.446 194.491 213.141 192.7 215.23 192.7C217.32 192.7 219.014 194.491 219.014 196.7V198.14C218.071 198.65 217.043 198.964 215.987 199.066V197.5H214.474ZM212.96 188.7C212.96 187.375 213.977 186.3 215.23 186.3C216.484 186.3 217.501 187.375 217.501 188.7C217.501 190.025 216.484 191.1 215.23 191.1C213.977 191.1 212.96 190.025 212.96 188.7ZM220.78 196.86C220.698 196.94 220.611 197.004 220.528 197.078V196.7C220.526 194.61 219.423 192.695 217.668 191.734C218.884 190.651 219.33 188.881 218.785 187.303C218.24 185.724 216.82 184.674 215.23 184.674C213.641 184.674 212.221 185.724 211.676 187.303C211.131 188.881 211.577 190.651 212.793 191.734C211.037 192.695 209.935 194.61 209.933 196.7V197.082C209.849 197.009 209.762 196.941 209.681 196.864C208.112 195.377 207.135 193.318 206.946 191.1H208.419V189.5H206.944C207.314 185.277 210.478 181.932 214.474 181.541V183.1H215.987V181.541C219.982 181.932 223.147 185.277 223.517 189.5H222.042V191.1H223.515C223.326 193.318 222.348 195.377 220.78 196.864V196.86Z" fill="url(#paint33_linear_54_851)"/>
<path d="M243.989 183.9C244.407 183.9 244.745 183.542 244.745 183.1V173.5C244.745 173.058 244.407 172.7 243.989 172.7H227.339C226.921 172.7 226.582 173.058 226.582 173.5V183.1C226.582 183.542 226.921 183.9 227.339 183.9H243.989ZM228.096 174.3H243.232V182.3H228.096V174.3Z" fill="url(#paint34_linear_54_851)"/>
<path d="M229.609 175.9H232.637V177.5H229.609V175.9Z" fill="url(#paint35_linear_54_851)"/>
<path d="M234.15 175.9H241.718V177.5H234.15V175.9Z" fill="url(#paint36_linear_54_851)"/>
<path d="M229.609 179.1H241.718V180.7H229.609V179.1Z" fill="url(#paint37_linear_54_851)"/>
<path d="M243.855 185.5C243.269 185.501 242.703 185.729 242.266 186.14L235.664 192.292V185.5H234.15V193.5H234.369L230.064 197.516C227.263 197.686 225.072 200.134 225.069 203.1V204.511C225.072 205.305 224.647 206.032 223.974 206.384C223.659 206.55 223.494 206.922 223.575 207.284C223.655 207.645 223.961 207.9 224.312 207.9H229.61C232.415 207.896 234.732 205.581 234.892 202.62L245.658 189.722C246.283 188.973 246.435 187.906 246.046 186.996C245.657 186.085 244.8 185.5 243.855 185.5ZM229.61 206.3H226.149C226.434 205.752 226.583 205.137 226.582 204.511V203.1C226.585 201.016 228.099 199.282 230.064 199.113L233.381 202.62C233.222 204.697 231.581 206.298 229.61 206.3ZM244.523 188.664L234.116 201.132L231.471 198.337L243.266 187.335C243.619 187.008 244.151 187.026 244.483 187.377C244.815 187.728 244.833 188.291 244.523 188.664Z" fill="url(#paint38_linear_54_851)"/>
<path d="M201.608 213.5H218.257C218.675 213.5 219.014 213.142 219.014 212.7V206.3C219.014 205.858 218.675 205.5 218.257 205.5H212.96V201.5H211.446V205.5H201.608C201.19 205.5 200.851 205.858 200.851 206.3V212.7C200.851 213.142 201.19 213.5 201.608 213.5ZM202.365 207.1H217.501V211.9H202.365V207.1Z" fill="url(#paint39_linear_54_851)"/>
<path d="M203.878 208.7H207.662V210.3H203.878V208.7Z" fill="url(#paint40_linear_54_851)"/>
<path d="M209.176 208.7H215.987V210.3H209.176V208.7Z" fill="url(#paint41_linear_54_851)"/>
<path d="M201.608 180.7H209.176C209.594 180.7 209.933 180.342 209.933 179.9V173.5C209.933 173.058 209.594 172.7 209.176 172.7H201.608C201.19 172.7 200.851 173.058 200.851 173.5V179.9C200.851 180.342 201.19 180.7 201.608 180.7ZM202.365 174.3H208.419V179.1H202.365V174.3Z" fill="url(#paint42_linear_54_851)"/>
<path d="M203.878 175.9H206.906V177.5H203.878V175.9Z" fill="url(#paint43_linear_54_851)"/>
</g>
<g filter="url(#filter4_d_54_851)">
<rect x="178.999" y="256.5" width="88.926" height="94" rx="10" fill="#FAFAFA"/>
</g>
<g clip-path="url(#clip4_54_851)">
<path d="M236.918 319.821C236.906 319.761 236.89 319.702 236.867 319.646C236.845 319.589 236.818 319.534 236.786 319.484C236.753 319.432 236.716 319.384 236.675 319.341C236.634 319.298 236.589 319.259 236.54 319.225C236.492 319.191 236.441 319.162 236.388 319.139C236.333 319.115 236.278 319.096 236.222 319.085C235.933 319.023 235.628 319.124 235.421 319.341C235.38 319.384 235.343 319.432 235.311 319.484C235.279 319.534 235.251 319.589 235.229 319.646C235.207 319.702 235.19 319.761 235.179 319.821C235.167 319.881 235.161 319.943 235.161 320.004C235.161 320.065 235.167 320.127 235.179 320.187C235.19 320.247 235.207 320.306 235.229 320.363C235.251 320.419 235.279 320.473 235.311 320.524C235.343 320.576 235.38 320.623 235.421 320.667C235.586 320.841 235.815 320.941 236.048 320.941C236.106 320.941 236.164 320.936 236.222 320.924C236.278 320.911 236.333 320.893 236.388 320.869C236.441 320.846 236.492 320.818 236.54 320.784C236.589 320.749 236.634 320.71 236.675 320.667C236.716 320.624 236.753 320.576 236.786 320.524C236.818 320.474 236.845 320.419 236.867 320.363C236.89 320.306 236.906 320.247 236.918 320.187C236.929 320.127 236.935 320.065 236.935 320.004C236.935 319.943 236.929 319.881 236.918 319.821Z" fill="url(#paint44_linear_54_851)"/>
<path d="M232.678 319.066H210.873C210.383 319.066 209.986 319.486 209.986 320.004C209.986 320.522 210.383 320.941 210.873 320.941H232.678C233.168 320.941 233.565 320.522 233.565 320.004C233.565 319.486 233.168 319.066 232.678 319.066Z" fill="url(#paint45_linear_54_851)"/>
<path d="M211.5 322.884C211.459 322.841 211.414 322.801 211.365 322.768C211.317 322.734 211.266 322.705 211.212 322.681C211.159 322.658 211.103 322.639 211.046 322.627C210.932 322.603 210.814 322.603 210.699 322.627C210.643 322.639 210.588 322.658 210.533 322.681C210.48 322.705 210.429 322.734 210.381 322.768C210.332 322.801 210.287 322.841 210.246 322.884C210.205 322.927 210.168 322.975 210.135 323.026C210.103 323.077 210.076 323.131 210.054 323.188C210.031 323.245 210.015 323.304 210.003 323.364C209.992 323.424 209.986 323.486 209.986 323.547C209.986 323.607 209.992 323.669 210.003 323.729C210.015 323.789 210.031 323.848 210.054 323.905C210.076 323.962 210.103 324.016 210.135 324.067C210.168 324.118 210.205 324.166 210.246 324.209C210.287 324.252 210.332 324.292 210.381 324.326C210.429 324.359 210.48 324.388 210.533 324.412C210.588 324.435 210.643 324.454 210.699 324.465C210.757 324.477 210.815 324.484 210.873 324.484C210.931 324.484 210.989 324.477 211.046 324.465C211.103 324.454 211.159 324.435 211.212 324.412C211.266 324.388 211.317 324.359 211.365 324.326C211.414 324.292 211.459 324.252 211.5 324.209C211.541 324.166 211.578 324.118 211.61 324.067C211.642 324.016 211.67 323.962 211.692 323.905C211.714 323.848 211.731 323.789 211.742 323.729C211.754 323.669 211.76 323.607 211.76 323.547C211.76 323.3 211.665 323.058 211.5 322.884Z" fill="url(#paint46_linear_54_851)"/>
<path d="M236.048 322.609H214.243C213.753 322.609 213.356 323.029 213.356 323.547C213.356 324.064 213.753 324.484 214.243 324.484H236.048C236.538 324.484 236.935 324.064 236.935 323.547C236.935 323.029 236.538 322.609 236.048 322.609Z" fill="url(#paint47_linear_54_851)"/>
<path d="M240.505 279.5H206.416C205.926 279.5 205.529 279.92 205.529 280.438V326.562C205.529 327.08 205.926 327.5 206.416 327.5H240.505C240.995 327.5 241.392 327.08 241.392 326.562V280.438C241.392 280.438 241.392 280.438 241.392 280.438C241.392 279.92 240.995 279.5 240.505 279.5ZM207.303 281.375H239.618V298.126H237.054L229.136 286.966C228.969 286.73 228.706 286.591 228.427 286.591C228.148 286.591 227.885 286.73 227.717 286.966L222.107 294.873L218.006 289.853C217.837 289.647 217.592 289.528 217.334 289.528C217.077 289.528 216.832 289.647 216.663 289.853L209.905 298.125H207.303V281.375ZM227.989 293.91H225.008L225.635 293.026H231.219L234.837 298.126H222.017L223.678 295.785H227.989C228.479 295.785 228.876 295.365 228.876 294.847C228.876 294.329 228.479 293.91 227.989 293.91ZM226.965 291.151L228.427 289.091L229.888 291.151H226.965ZM221.018 296.408L219.823 298.092L219.799 298.126H212.248L217.334 291.9L221.018 296.408ZM207.303 300.001H239.618V312.064H207.303V300.001ZM207.303 313.939H239.618V315.908H207.303V313.939ZM207.303 325.625V317.783H239.618V325.625H207.303Z" fill="url(#paint48_linear_54_851)"/>
<path d="M221.207 282.552C219.475 282.552 218.066 284.042 218.066 285.872C218.066 287.703 219.475 289.192 221.207 289.192C222.938 289.192 224.347 287.703 224.347 285.872C224.347 284.042 222.938 282.552 221.207 282.552ZM221.207 287.317C220.453 287.317 219.84 286.669 219.84 285.872C219.84 285.076 220.453 284.427 221.207 284.427C221.96 284.427 222.574 285.076 222.574 285.872C222.574 286.669 221.96 287.317 221.207 287.317Z" fill="url(#paint49_linear_54_851)"/>
<path d="M216.499 301.768H210.543C210.054 301.768 209.656 302.187 209.656 302.705V309.111C209.656 309.629 210.054 310.049 210.543 310.049H216.499C216.989 310.049 217.386 309.629 217.386 309.111V302.705C217.386 302.187 216.989 301.768 216.499 301.768ZM215.612 308.174H211.43V303.643H215.612V308.174Z" fill="url(#paint50_linear_54_851)"/>
<path d="M226.438 301.768H220.483C219.993 301.768 219.596 302.187 219.596 302.705V309.111C219.596 309.629 219.993 310.049 220.483 310.049H226.438C226.928 310.049 227.325 309.629 227.325 309.111V302.705C227.325 302.187 226.928 301.768 226.438 301.768ZM225.551 308.174H221.37V303.643H225.551V308.174Z" fill="url(#paint51_linear_54_851)"/>
<path d="M236.378 301.768H230.422C229.932 301.768 229.535 302.187 229.535 302.705V309.111C229.535 309.629 229.932 310.049 230.422 310.049H236.378C236.868 310.049 237.265 309.629 237.265 309.111V302.705C237.265 302.187 236.868 301.768 236.378 301.768ZM235.491 308.174H231.309V303.643H235.491V308.174Z" fill="url(#paint52_linear_54_851)"/>
</g>
<defs>
<filter id="filter0_d_54_851" x="35.0752" y="55.5" width="168.924" height="174" filterUnits="userSpaceOnUse" color-interpolation-filters="sRGB">
<feFlood flood-opacity="0" result="BackgroundImageFix"/>
<feColorMatrix in="SourceAlpha" type="matrix" values="0 0 0 0 0 0 0 0 0 0 0 0 0 0 0 0 0 0 127 0" result="hardAlpha"/>
<feOffset dy="4"/>
<feGaussianBlur stdDeviation="20"/>
<feColorMatrix type="matrix" values="0 0 0 0 0 0 0 0 0 0 0 0 0 0 0 0 0 0 0.25 0"/>
<feBlend mode="normal" in2="BackgroundImageFix" result="effect1_dropShadow_54_851"/>
<feBlend mode="normal" in="SourceGraphic" in2="effect1_dropShadow_54_851" result="shape"/>
</filter>
<filter id="filter1_d_54_851" x="35.0752" y="165.5" width="168.924" height="174" filterUnits="userSpaceOnUse" color-interpolation-filters="sRGB">
<feFlood flood-opacity="0" result="BackgroundImageFix"/>
<feColorMatrix in="SourceAlpha" type="matrix" values="0 0 0 0 0 0 0 0 0 0 0 0 0 0 0 0 0 0 127 0" result="hardAlpha"/>
<feOffset dy="4"/>
<feGaussianBlur stdDeviation="20"/>
<feColorMatrix type="matrix" values="0 0 0 0 0 0 0 0 0 0 0 0 0 0 0 0 0 0 0.25 0"/>
<feBlend mode="normal" in2="BackgroundImageFix" result="effect1_dropShadow_54_851"/>
<feBlend mode="normal" in="SourceGraphic" in2="effect1_dropShadow_54_851" result="shape"/>
</filter>
<filter id="filter2_d_54_851" x="138.999" y="0.5" width="168.924" height="174" filterUnits="userSpaceOnUse" color-interpolation-filters="sRGB">
<feFlood flood-opacity="0" result="BackgroundImageFix"/>
<feColorMatrix in="SourceAlpha" type="matrix" values="0 0 0 0 0 0 0 0 0 0 0 0 0 0 0 0 0 0 127 0" result="hardAlpha"/>
<feOffset dy="4"/>
<feGaussianBlur stdDeviation="20"/>
<feColorMatrix type="matrix" values="0 0 0 0 0 0 0 0 0 0 0 0 0 0 0 0 0 0 0.25 0"/>
<feBlend mode="normal" in2="BackgroundImageFix" result="effect1_dropShadow_54_851"/>
<feBlend mode="normal" in="SourceGraphic" in2="effect1_dropShadow_54_851" result="shape"/>
</filter>
<filter id="filter3_d_54_851" x="138.999" y="110.5" width="168.924" height="174" filterUnits="userSpaceOnUse" color-interpolation-filters="sRGB">
<feFlood flood-opacity="0" result="BackgroundImageFix"/>
<feColorMatrix in="SourceAlpha" type="matrix" values="0 0 0 0 0 0 0 0 0 0 0 0 0 0 0 0 0 0 127 0" result="hardAlpha"/>
<feOffset dy="4"/>
<feGaussianBlur stdDeviation="20"/>
<feColorMatrix type="matrix" values="0 0 0 0 0 0 0 0 0 0 0 0 0 0 0 0 0 0 0.25 0"/>
<feBlend mode="normal" in2="BackgroundImageFix" result="effect1_dropShadow_54_851"/>
<feBlend mode="normal" in="SourceGraphic" in2="effect1_dropShadow_54_851" result="shape"/>
</filter>
<filter id="filter4_d_54_851" x="138.999" y="220.5" width="168.926" height="174" filterUnits="userSpaceOnUse" color-interpolation-filters="sRGB">
<feFlood flood-opacity="0" result="BackgroundImageFix"/>
<feColorMatrix in="SourceAlpha" type="matrix" values="0 0 0 0 0 0 0 0 0 0 0 0 0 0 0 0 0 0 127 0" result="hardAlpha"/>
<feOffset dy="4"/>
<feGaussianBlur stdDeviation="20"/>
<feColorMatrix type="matrix" values="0 0 0 0 0 0 0 0 0 0 0 0 0 0 0 0 0 0 0.25 0"/>
<feBlend mode="normal" in2="BackgroundImageFix" result="effect1_dropShadow_54_851"/>
<feBlend mode="normal" in="SourceGraphic" in2="effect1_dropShadow_54_851" result="shape"/>
</filter>
<linearGradient id="paint0_linear_54_851" x1="105.409" y1="111.311" x2="150.627" y2="142.212" gradientUnits="userSpaceOnUse">
<stop offset="0.0271195" stop-color="#6C48D3"/>
<stop offset="0.287564" stop-color="#4D4DE2"/>
<stop offset="0.808912" stop-color="#3778FC"/>
<stop offset="0.967351" stop-color="#0370FF"/>
</linearGradient>
<linearGradient id="paint1_linear_54_851" x1="124.067" y1="117.672" x2="125.955" y2="119.745" gradientUnits="userSpaceOnUse">
<stop offset="0.0271195" stop-color="#6C48D3"/>
<stop offset="0.287564" stop-color="#4D4DE2"/>
<stop offset="0.808912" stop-color="#3778FC"/>
<stop offset="0.967351" stop-color="#0370FF"/>
</linearGradient>
<linearGradient id="paint2_linear_54_851" x1="113.233" y1="117.673" x2="113.876" y2="121.352" gradientUnits="userSpaceOnUse">
<stop offset="0.0271195" stop-color="#6C48D3"/>
<stop offset="0.287564" stop-color="#4D4DE2"/>
<stop offset="0.808912" stop-color="#3778FC"/>
<stop offset="0.967351" stop-color="#0370FF"/>
</linearGradient>
<linearGradient id="paint3_linear_54_851" x1="117.482" y1="157.203" x2="118.772" y2="160.488" gradientUnits="userSpaceOnUse">
<stop offset="0.0271195" stop-color="#6C48D3"/>
<stop offset="0.287564" stop-color="#4D4DE2"/>
<stop offset="0.808912" stop-color="#3778FC"/>
<stop offset="0.967351" stop-color="#0370FF"/>
</linearGradient>
<linearGradient id="paint4_linear_54_851" x1="109.5" y1="150.504" x2="111.387" y2="152.576" gradientUnits="userSpaceOnUse">
<stop offset="0.0271195" stop-color="#6C48D3"/>
<stop offset="0.287564" stop-color="#4D4DE2"/>
<stop offset="0.808912" stop-color="#3778FC"/>
<stop offset="0.967351" stop-color="#0370FF"/>
</linearGradient>
<linearGradient id="paint5_linear_54_851" x1="112.871" y1="150.503" x2="113.234" y2="154.26" gradientUnits="userSpaceOnUse">
<stop offset="0.0271195" stop-color="#6C48D3"/>
<stop offset="0.287564" stop-color="#4D4DE2"/>
<stop offset="0.808912" stop-color="#3778FC"/>
<stop offset="0.967351" stop-color="#0370FF"/>
</linearGradient>
<linearGradient id="paint6_linear_54_851" x1="115.318" y1="123.206" x2="127.124" y2="132.925" gradientUnits="userSpaceOnUse">
<stop offset="0.0271195" stop-color="#6C48D3"/>
<stop offset="0.287564" stop-color="#4D4DE2"/>
<stop offset="0.808912" stop-color="#3778FC"/>
<stop offset="0.967351" stop-color="#0370FF"/>
</linearGradient>
<linearGradient id="paint7_linear_54_851" x1="109.43" y1="136.62" x2="112.09" y2="147.537" gradientUnits="userSpaceOnUse">
<stop offset="0.0271195" stop-color="#6C48D3"/>
<stop offset="0.287564" stop-color="#4D4DE2"/>
<stop offset="0.808912" stop-color="#3778FC"/>
<stop offset="0.967351" stop-color="#0370FF"/>
</linearGradient>
<linearGradient id="paint8_linear_54_851" x1="109.43" y1="143.37" x2="112.09" y2="154.287" gradientUnits="userSpaceOnUse">
<stop offset="0.0271195" stop-color="#6C48D3"/>
<stop offset="0.287564" stop-color="#4D4DE2"/>
<stop offset="0.808912" stop-color="#3778FC"/>
<stop offset="0.967351" stop-color="#0370FF"/>
</linearGradient>
<linearGradient id="paint9_linear_54_851" x1="96.8105" y1="223.255" x2="139.432" y2="275.473" gradientUnits="userSpaceOnUse">
<stop offset="0.0271195" stop-color="#6C48D3"/>
<stop offset="0.287564" stop-color="#4D4DE2"/>
<stop offset="0.808912" stop-color="#3778FC"/>
<stop offset="0.967351" stop-color="#0370FF"/>
</linearGradient>
<linearGradient id="paint10_linear_54_851" x1="135.93" y1="229.544" x2="137.817" y2="231.617" gradientUnits="userSpaceOnUse">
<stop offset="0.0271195" stop-color="#6C48D3"/>
<stop offset="0.287564" stop-color="#4D4DE2"/>
<stop offset="0.808912" stop-color="#3778FC"/>
<stop offset="0.967351" stop-color="#0370FF"/>
</linearGradient>
<linearGradient id="paint11_linear_54_851" x1="115.162" y1="229.544" x2="115.479" y2="233.309" gradientUnits="userSpaceOnUse">
<stop offset="0.0271195" stop-color="#6C48D3"/>
<stop offset="0.287564" stop-color="#4D4DE2"/>
<stop offset="0.808912" stop-color="#3778FC"/>
<stop offset="0.967351" stop-color="#0370FF"/>
</linearGradient>
<linearGradient id="paint12_linear_54_851" x1="104.598" y1="229.544" x2="106.485" y2="231.617" gradientUnits="userSpaceOnUse">
<stop offset="0.0271195" stop-color="#6C48D3"/>
<stop offset="0.287564" stop-color="#4D4DE2"/>
<stop offset="0.808912" stop-color="#3778FC"/>
<stop offset="0.967351" stop-color="#0370FF"/>
</linearGradient>
<linearGradient id="paint13_linear_54_851" x1="107.872" y1="229.544" x2="109.759" y2="231.617" gradientUnits="userSpaceOnUse">
<stop offset="0.0271195" stop-color="#6C48D3"/>
<stop offset="0.287564" stop-color="#4D4DE2"/>
<stop offset="0.808912" stop-color="#3778FC"/>
<stop offset="0.967351" stop-color="#0370FF"/>
</linearGradient>
<linearGradient id="paint14_linear_54_851" x1="101.326" y1="229.545" x2="103.212" y2="231.617" gradientUnits="userSpaceOnUse">
<stop offset="0.0271195" stop-color="#6C48D3"/>
<stop offset="0.287564" stop-color="#4D4DE2"/>
<stop offset="0.808912" stop-color="#3778FC"/>
<stop offset="0.967351" stop-color="#0370FF"/>
</linearGradient>
<linearGradient id="paint15_linear_54_851" x1="100.696" y1="235.307" x2="126.299" y2="275.389" gradientUnits="userSpaceOnUse">
<stop offset="0.0271195" stop-color="#6C48D3"/>
<stop offset="0.287564" stop-color="#4D4DE2"/>
<stop offset="0.808912" stop-color="#3778FC"/>
<stop offset="0.967351" stop-color="#0370FF"/>
</linearGradient>
<linearGradient id="paint16_linear_54_851" x1="104.008" y1="239.304" x2="124.789" y2="256.295" gradientUnits="userSpaceOnUse">
<stop offset="0.0271195" stop-color="#6C48D3"/>
<stop offset="0.287564" stop-color="#4D4DE2"/>
<stop offset="0.808912" stop-color="#3778FC"/>
<stop offset="0.967351" stop-color="#0370FF"/>
</linearGradient>
<linearGradient id="paint17_linear_54_851" x1="107.056" y1="242.386" x2="121.391" y2="251.682" gradientUnits="userSpaceOnUse">
<stop offset="0.0271195" stop-color="#6C48D3"/>
<stop offset="0.287564" stop-color="#4D4DE2"/>
<stop offset="0.808912" stop-color="#3778FC"/>
<stop offset="0.967351" stop-color="#0370FF"/>
</linearGradient>
<linearGradient id="paint18_linear_54_851" x1="120.543" y1="240.036" x2="129.293" y2="255.096" gradientUnits="userSpaceOnUse">
<stop offset="0.0271195" stop-color="#6C48D3"/>
<stop offset="0.287564" stop-color="#4D4DE2"/>
<stop offset="0.808912" stop-color="#3778FC"/>
<stop offset="0.967351" stop-color="#0370FF"/>
</linearGradient>
<linearGradient id="paint19_linear_54_851" x1="120.542" y1="251.044" x2="129.292" y2="266.104" gradientUnits="userSpaceOnUse">
<stop offset="0.0271195" stop-color="#6C48D3"/>
<stop offset="0.287564" stop-color="#4D4DE2"/>
<stop offset="0.808912" stop-color="#3778FC"/>
<stop offset="0.967351" stop-color="#0370FF"/>
</linearGradient>
<linearGradient id="paint20_linear_54_851" x1="200.286" y1="57.0586" x2="248.609" y2="110.124" gradientUnits="userSpaceOnUse">
<stop offset="0.0271195" stop-color="#6C48D3"/>
<stop offset="0.287564" stop-color="#4D4DE2"/>
<stop offset="0.808912" stop-color="#3778FC"/>
<stop offset="0.967351" stop-color="#0370FF"/>
</linearGradient>
<linearGradient id="paint21_linear_54_851" x1="236.983" y1="73.2632" x2="238.871" y2="75.3349" gradientUnits="userSpaceOnUse">
<stop offset="0.0271195" stop-color="#6C48D3"/>
<stop offset="0.287564" stop-color="#4D4DE2"/>
<stop offset="0.808912" stop-color="#3778FC"/>
<stop offset="0.967351" stop-color="#0370FF"/>
</linearGradient>
<linearGradient id="paint22_linear_54_851" x1="229.695" y1="73.2637" x2="230.691" y2="76.7728" gradientUnits="userSpaceOnUse">
<stop offset="0.0271195" stop-color="#6C48D3"/>
<stop offset="0.287564" stop-color="#4D4DE2"/>
<stop offset="0.808912" stop-color="#3778FC"/>
<stop offset="0.967351" stop-color="#0370FF"/>
</linearGradient>
<linearGradient id="paint23_linear_54_851" x1="232.17" y1="103.419" x2="233.461" y2="106.704" gradientUnits="userSpaceOnUse">
<stop offset="0.0271195" stop-color="#6C48D3"/>
<stop offset="0.287564" stop-color="#4D4DE2"/>
<stop offset="0.808912" stop-color="#3778FC"/>
<stop offset="0.967351" stop-color="#0370FF"/>
</linearGradient>
<linearGradient id="paint24_linear_54_851" x1="211.08" y1="73.603" x2="216.082" y2="77.3488" gradientUnits="userSpaceOnUse">
<stop offset="0.0271195" stop-color="#6C48D3"/>
<stop offset="0.287564" stop-color="#4D4DE2"/>
<stop offset="0.808912" stop-color="#3778FC"/>
<stop offset="0.967351" stop-color="#0370FF"/>
</linearGradient>
<linearGradient id="paint25_linear_54_851" x1="215.153" y1="66.728" x2="217.04" y2="68.8008" gradientUnits="userSpaceOnUse">
<stop offset="0.0271195" stop-color="#6C48D3"/>
<stop offset="0.287564" stop-color="#4D4DE2"/>
<stop offset="0.808912" stop-color="#3778FC"/>
<stop offset="0.967351" stop-color="#0370FF"/>
</linearGradient>
<linearGradient id="paint26_linear_54_851" x1="218.523" y1="66.7276" x2="219.014" y2="70.4548" gradientUnits="userSpaceOnUse">
<stop offset="0.0271195" stop-color="#6C48D3"/>
<stop offset="0.287564" stop-color="#4D4DE2"/>
<stop offset="0.808912" stop-color="#3778FC"/>
<stop offset="0.967351" stop-color="#0370FF"/>
</linearGradient>
<linearGradient id="paint27_linear_54_851" x1="226.245" y1="78.7317" x2="236.091" y2="95.2243" gradientUnits="userSpaceOnUse">
<stop offset="0.0271195" stop-color="#6C48D3"/>
<stop offset="0.287564" stop-color="#4D4DE2"/>
<stop offset="0.808912" stop-color="#3778FC"/>
<stop offset="0.967351" stop-color="#0370FF"/>
</linearGradient>
<linearGradient id="paint28_linear_54_851" x1="226.245" y1="91.7072" x2="231.638" y2="104.86" gradientUnits="userSpaceOnUse">
<stop offset="0.0271195" stop-color="#6C48D3"/>
<stop offset="0.287564" stop-color="#4D4DE2"/>
<stop offset="0.808912" stop-color="#3778FC"/>
<stop offset="0.967351" stop-color="#0370FF"/>
</linearGradient>
<linearGradient id="paint29_linear_54_851" x1="236.16" y1="82.077" x2="241.163" y2="85.8229" gradientUnits="userSpaceOnUse">
<stop offset="0.0271195" stop-color="#6C48D3"/>
<stop offset="0.287564" stop-color="#4D4DE2"/>
<stop offset="0.808912" stop-color="#3778FC"/>
<stop offset="0.967351" stop-color="#0370FF"/>
</linearGradient>
<linearGradient id="paint30_linear_54_851" x1="228.985" y1="82.0769" x2="233.988" y2="85.8227" gradientUnits="userSpaceOnUse">
<stop offset="0.0271195" stop-color="#6C48D3"/>
<stop offset="0.287564" stop-color="#4D4DE2"/>
<stop offset="0.808912" stop-color="#3778FC"/>
<stop offset="0.967351" stop-color="#0370FF"/>
</linearGradient>
<linearGradient id="paint31_linear_54_851" x1="211.952" y1="205.556" x2="219.859" y2="224.988" gradientUnits="userSpaceOnUse">
<stop offset="0.0271195" stop-color="#6C48D3"/>
<stop offset="0.287564" stop-color="#4D4DE2"/>
<stop offset="0.808912" stop-color="#3778FC"/>
<stop offset="0.967351" stop-color="#0370FF"/>
</linearGradient>
<linearGradient id="paint32_linear_54_851" x1="222.798" y1="212.594" x2="224.409" y2="214.363" gradientUnits="userSpaceOnUse">
<stop offset="0.0271195" stop-color="#6C48D3"/>
<stop offset="0.287564" stop-color="#4D4DE2"/>
<stop offset="0.808912" stop-color="#3778FC"/>
<stop offset="0.967351" stop-color="#0370FF"/>
</linearGradient>
<linearGradient id="paint33_linear_54_851" x1="203.122" y1="167.268" x2="236.996" y2="203.853" gradientUnits="userSpaceOnUse">
<stop offset="0.0271195" stop-color="#6C48D3"/>
<stop offset="0.287564" stop-color="#4D4DE2"/>
<stop offset="0.808912" stop-color="#3778FC"/>
<stop offset="0.967351" stop-color="#0370FF"/>
</linearGradient>
<linearGradient id="paint34_linear_54_851" x1="226.582" y1="171.956" x2="235.966" y2="189.621" gradientUnits="userSpaceOnUse">
<stop offset="0.0271195" stop-color="#6C48D3"/>
<stop offset="0.287564" stop-color="#4D4DE2"/>
<stop offset="0.808912" stop-color="#3778FC"/>
<stop offset="0.967351" stop-color="#0370FF"/>
</linearGradient>
<linearGradient id="paint35_linear_54_851" x1="229.609" y1="175.794" x2="230.83" y2="178.474" gradientUnits="userSpaceOnUse">
<stop offset="0.0271195" stop-color="#6C48D3"/>
<stop offset="0.287564" stop-color="#4D4DE2"/>
<stop offset="0.808912" stop-color="#3778FC"/>
<stop offset="0.967351" stop-color="#0370FF"/>
</linearGradient>
<linearGradient id="paint36_linear_54_851" x1="234.15" y1="175.794" x2="234.721" y2="178.926" gradientUnits="userSpaceOnUse">
<stop offset="0.0271195" stop-color="#6C48D3"/>
<stop offset="0.287564" stop-color="#4D4DE2"/>
<stop offset="0.808912" stop-color="#3778FC"/>
<stop offset="0.967351" stop-color="#0370FF"/>
</linearGradient>
<linearGradient id="paint37_linear_54_851" x1="229.609" y1="178.994" x2="229.973" y2="182.188" gradientUnits="userSpaceOnUse">
<stop offset="0.0271195" stop-color="#6C48D3"/>
<stop offset="0.287564" stop-color="#4D4DE2"/>
<stop offset="0.808912" stop-color="#3778FC"/>
<stop offset="0.967351" stop-color="#0370FF"/>
</linearGradient>
<linearGradient id="paint38_linear_54_851" x1="223.555" y1="184.012" x2="245.908" y2="210.313" gradientUnits="userSpaceOnUse">
<stop offset="0.0271195" stop-color="#6C48D3"/>
<stop offset="0.287564" stop-color="#4D4DE2"/>
<stop offset="0.808912" stop-color="#3778FC"/>
<stop offset="0.967351" stop-color="#0370FF"/>
</linearGradient>
<linearGradient id="paint39_linear_54_851" x1="200.851" y1="200.703" x2="211.283" y2="219.033" gradientUnits="userSpaceOnUse">
<stop offset="0.0271195" stop-color="#6C48D3"/>
<stop offset="0.287564" stop-color="#4D4DE2"/>
<stop offset="0.808912" stop-color="#3778FC"/>
<stop offset="0.967351" stop-color="#0370FF"/>
</linearGradient>
<linearGradient id="paint40_linear_54_851" x1="203.878" y1="208.594" x2="204.919" y2="211.45" gradientUnits="userSpaceOnUse">
<stop offset="0.0271195" stop-color="#6C48D3"/>
<stop offset="0.287564" stop-color="#4D4DE2"/>
<stop offset="0.808912" stop-color="#3778FC"/>
<stop offset="0.967351" stop-color="#0370FF"/>
</linearGradient>
<linearGradient id="paint41_linear_54_851" x1="209.176" y1="208.594" x2="209.805" y2="211.702" gradientUnits="userSpaceOnUse">
<stop offset="0.0271195" stop-color="#6C48D3"/>
<stop offset="0.287564" stop-color="#4D4DE2"/>
<stop offset="0.808912" stop-color="#3778FC"/>
<stop offset="0.967351" stop-color="#0370FF"/>
</linearGradient>
<linearGradient id="paint42_linear_54_851" x1="200.851" y1="172.169" x2="208.642" y2="182.435" gradientUnits="userSpaceOnUse">
<stop offset="0.0271195" stop-color="#6C48D3"/>
<stop offset="0.287564" stop-color="#4D4DE2"/>
<stop offset="0.808912" stop-color="#3778FC"/>
<stop offset="0.967351" stop-color="#0370FF"/>
</linearGradient>
<linearGradient id="paint43_linear_54_851" x1="203.878" y1="175.794" x2="205.099" y2="178.474" gradientUnits="userSpaceOnUse">
<stop offset="0.0271195" stop-color="#6C48D3"/>
<stop offset="0.287564" stop-color="#4D4DE2"/>
<stop offset="0.808912" stop-color="#3778FC"/>
<stop offset="0.967351" stop-color="#0370FF"/>
</linearGradient>
<linearGradient id="paint44_linear_54_851" x1="235.161" y1="318.943" x2="237.048" y2="321.015" gradientUnits="userSpaceOnUse">
<stop offset="0.0271195" stop-color="#6C48D3"/>
<stop offset="0.287564" stop-color="#4D4DE2"/>
<stop offset="0.808912" stop-color="#3778FC"/>
<stop offset="0.967351" stop-color="#0370FF"/>
</linearGradient>
<linearGradient id="paint45_linear_54_851" x1="209.986" y1="318.942" x2="210.245" y2="322.716" gradientUnits="userSpaceOnUse">
<stop offset="0.0271195" stop-color="#6C48D3"/>
<stop offset="0.287564" stop-color="#4D4DE2"/>
<stop offset="0.808912" stop-color="#3778FC"/>
<stop offset="0.967351" stop-color="#0370FF"/>
</linearGradient>
<linearGradient id="paint46_linear_54_851" x1="209.986" y1="322.485" x2="211.874" y2="324.558" gradientUnits="userSpaceOnUse">
<stop offset="0.0271195" stop-color="#6C48D3"/>
<stop offset="0.287564" stop-color="#4D4DE2"/>
<stop offset="0.808912" stop-color="#3778FC"/>
<stop offset="0.967351" stop-color="#0370FF"/>
</linearGradient>
<linearGradient id="paint47_linear_54_851" x1="213.356" y1="322.485" x2="213.615" y2="326.259" gradientUnits="userSpaceOnUse">
<stop offset="0.0271195" stop-color="#6C48D3"/>
<stop offset="0.287564" stop-color="#4D4DE2"/>
<stop offset="0.808912" stop-color="#3778FC"/>
<stop offset="0.967351" stop-color="#0370FF"/>
</linearGradient>
<linearGradient id="paint48_linear_54_851" x1="205.529" y1="276.311" x2="253.576" y2="317.983" gradientUnits="userSpaceOnUse">
<stop offset="0.0271195" stop-color="#6C48D3"/>
<stop offset="0.287564" stop-color="#4D4DE2"/>
<stop offset="0.808912" stop-color="#3778FC"/>
<stop offset="0.967351" stop-color="#0370FF"/>
</linearGradient>
<linearGradient id="paint49_linear_54_851" x1="218.066" y1="282.111" x2="224.751" y2="289.452" gradientUnits="userSpaceOnUse">
<stop offset="0.0271195" stop-color="#6C48D3"/>
<stop offset="0.287564" stop-color="#4D4DE2"/>
<stop offset="0.808912" stop-color="#3778FC"/>
<stop offset="0.967351" stop-color="#0370FF"/>
</linearGradient>
<linearGradient id="paint50_linear_54_851" x1="209.656" y1="301.217" x2="218.003" y2="310.261" gradientUnits="userSpaceOnUse">
<stop offset="0.0271195" stop-color="#6C48D3"/>
<stop offset="0.287564" stop-color="#4D4DE2"/>
<stop offset="0.808912" stop-color="#3778FC"/>
<stop offset="0.967351" stop-color="#0370FF"/>
</linearGradient>
<linearGradient id="paint51_linear_54_851" x1="219.596" y1="301.217" x2="227.943" y2="310.261" gradientUnits="userSpaceOnUse">
<stop offset="0.0271195" stop-color="#6C48D3"/>
<stop offset="0.287564" stop-color="#4D4DE2"/>
<stop offset="0.808912" stop-color="#3778FC"/>
<stop offset="0.967351" stop-color="#0370FF"/>
</linearGradient>
<linearGradient id="paint52_linear_54_851" x1="229.535" y1="301.217" x2="237.882" y2="310.261" gradientUnits="userSpaceOnUse">
<stop offset="0.0271195" stop-color="#6C48D3"/>
<stop offset="0.287564" stop-color="#4D4DE2"/>
<stop offset="0.808912" stop-color="#3778FC"/>
<stop offset="0.967351" stop-color="#0370FF"/>
</linearGradient>
<clipPath id="clip0_54_851">
<rect width="45.4078" height="48" fill="white" transform="translate(96.8331 114.5)"/>
</clipPath>
<clipPath id="clip1_54_851">
<rect width="45.4078" height="48" fill="white" transform="translate(96.8105 223.625)"/>
</clipPath>
<clipPath id="clip2_54_851">
<rect width="45.4078" height="48" fill="white" transform="translate(200.286 60.2474)"/>
</clipPath>
<clipPath id="clip3_54_851">
<rect width="45.4078" height="48" fill="white" transform="translate(200.757 169.5)"/>
</clipPath>
<clipPath id="clip4_54_851">
<rect width="45.4078" height="48" fill="white" transform="translate(200.757 279.5)"/>
</clipPath>
</defs>
</svg>
