<svg width="375" height="463" viewBox="0 0 375 463" fill="none" xmlns="http://www.w3.org/2000/svg">
<rect x="100.924" y="347.659" width="62.9425" height="726.603" rx="31.4712" transform="rotate(-135 100.924 347.659)" fill="url(#paint0_linear_54_618)"/>
<rect x="220.89" y="316.706" width="62.9425" height="804.555" rx="31.4712" transform="rotate(-135 220.89 316.706)" fill="url(#paint1_linear_54_618)"/>
<rect x="-13.5327" y="284.087" width="62.9425" height="701.027" rx="31.4712" transform="rotate(-135 -13.5327 284.087)" fill="url(#paint2_linear_54_618)"/>
<rect x="79.9766" y="279.592" width="62.9425" height="839.932" rx="31.4712" transform="rotate(-135 79.9766 279.592)" fill="url(#paint3_linear_54_618)"/>
<rect x="343.318" y="283.292" width="62.9425" height="857.302" rx="31.4712" transform="rotate(-135 343.318 283.292)" fill="url(#paint4_linear_54_618)"/>
<defs>
<linearGradient id="paint0_linear_54_618" x1="132.395" y1="347.659" x2="132.395" y2="1074.26" gradientUnits="userSpaceOnUse">
<stop stop-color="white"/>
<stop offset="1" stop-color="white" stop-opacity="0"/>
</linearGradient>
<linearGradient id="paint1_linear_54_618" x1="252.361" y1="316.706" x2="252.361" y2="1121.26" gradientUnits="userSpaceOnUse">
<stop stop-color="white"/>
<stop offset="1" stop-color="white" stop-opacity="0"/>
</linearGradient>
<linearGradient id="paint2_linear_54_618" x1="17.9385" y1="284.087" x2="17.9385" y2="985.114" gradientUnits="userSpaceOnUse">
<stop stop-color="white"/>
<stop offset="1" stop-color="white" stop-opacity="0"/>
</linearGradient>
<linearGradient id="paint3_linear_54_618" x1="111.448" y1="279.592" x2="111.448" y2="1119.52" gradientUnits="userSpaceOnUse">
<stop stop-color="white"/>
<stop offset="1" stop-color="white" stop-opacity="0"/>
</linearGradient>
<linearGradient id="paint4_linear_54_618" x1="374.79" y1="283.292" x2="374.79" y2="1140.59" gradientUnits="userSpaceOnUse">
<stop stop-color="white"/>
<stop offset="1" stop-color="white" stop-opacity="0"/>
</linearGradient>
</defs>
</svg>
