<svg width="100" height="100" viewBox="0 0 100 100" fill="none" xmlns="http://www.w3.org/2000/svg">
<path d="M82.8125 12.5C74.3403 12.5 65.9201 14.5833 57.5521 18.75C49.184 22.9167 41.6667 28.3333 35 35C28.3333 41.6667 22.9167 49.184 18.75 57.5521C14.5833 65.9201 12.5 74.3403 12.5 82.8125C12.5 84.1319 12.9514 85.2431 13.8542 86.1458C14.7569 87.0486 15.8681 87.5 17.1875 87.5H31.7708C32.7431 87.5 33.5938 87.1701 34.3229 86.5104C35.0521 85.8507 35.5208 84.9653 35.7292 83.8542L38.5417 70.7292C38.6806 69.7569 38.6632 68.8715 38.4896 68.0729C38.316 67.2743 37.9514 66.5972 37.3958 66.0417L26.9792 55.5208C30.8681 49.0625 35.2257 43.4375 40.0521 38.6458C44.8785 33.8542 50.3472 29.7917 56.4583 26.4583L66.3542 36.6667C67.0486 37.4306 67.8472 37.9688 68.75 38.2813C69.6528 38.5938 70.5556 38.6458 71.4583 38.4375L83.8542 35.7292C84.8958 35.5208 85.7639 35 86.4583 34.1667C87.1528 33.3333 87.5 32.3611 87.5 31.25V17.1875C87.5 15.8681 87.0486 14.757 86.1458 13.8542C85.243 12.9514 84.1319 12.5 82.8125 12.5ZM23.8542 61.25L32.2917 69.7917L29.8958 81.25H18.75C18.75 78.5417 19.1667 75.5729 20 72.3438C20.8333 69.1146 22.1181 65.4167 23.8542 61.25ZM81.25 18.75V29.8958L70.5208 32.0833L62.2917 23.4375C65.1389 22.1181 68.2292 21.0417 71.5625 20.2083C74.8958 19.375 78.125 18.8889 81.25 18.75Z" fill="#F66B0E"/>
</svg>
