<svg width="100" height="100" viewBox="0 0 100 100" fill="none" xmlns="http://www.w3.org/2000/svg">
<path d="M46.875 95.625V87.8125C37.3611 86.8403 29.4444 83.1944 23.125 76.875C16.8056 70.5556 13.1597 62.6389 12.1875 53.125H4.375V46.875H12.1875C13.1597 37.3611 16.8056 29.4444 23.125 23.125C29.4444 16.8056 37.3611 13.1597 46.875 12.1875V4.375H53.125V12.1875C62.6389 13.1597 70.5556 16.8056 76.875 23.125C83.1944 29.4444 86.8403 37.3611 87.8125 46.875H95.625V53.125H87.8125C86.8403 62.6389 83.1944 70.5556 76.875 76.875C70.5556 83.1944 62.6389 86.8403 53.125 87.8125V95.625H46.875ZM50 81.6667C58.6806 81.6667 66.1285 78.559 72.3437 72.3437C78.559 66.1285 81.6667 58.6806 81.6667 50C81.6667 41.3194 78.559 33.8715 72.3437 27.6562C66.1285 21.441 58.6806 18.3333 50 18.3333C41.3194 18.3333 33.8715 21.441 27.6562 27.6562C21.441 33.8715 18.3333 41.3194 18.3333 50C18.3333 58.6806 21.441 66.1285 27.6562 72.3437C33.8715 78.559 41.3194 81.6667 50 81.6667ZM50 65.625C45.625 65.625 41.9271 64.1146 38.9062 61.0937C35.8854 58.0729 34.375 54.375 34.375 50C34.375 45.625 35.8854 41.9271 38.9062 38.9062C41.9271 35.8854 45.625 34.375 50 34.375C54.375 34.375 58.0729 35.8854 61.0937 38.9062C64.1146 41.9271 65.625 45.625 65.625 50C65.625 54.375 64.1146 58.0729 61.0937 61.0937C58.0729 64.1146 54.375 65.625 50 65.625ZM50 59.375C52.6389 59.375 54.8611 58.4722 56.6667 56.6667C58.4722 54.8611 59.375 52.6389 59.375 50C59.375 47.3611 58.4722 45.1389 56.6667 43.3333C54.8611 41.5278 52.6389 40.625 50 40.625C47.3611 40.625 45.1389 41.5278 43.3333 43.3333C41.5278 45.1389 40.625 47.3611 40.625 50C40.625 52.6389 41.5278 54.8611 43.3333 56.6667C45.1389 58.4722 47.3611 59.375 50 59.375Z" fill="#F66B0E"/>
</svg>
