<svg width="69" height="73" viewBox="0 0 69 73" fill="none" xmlns="http://www.w3.org/2000/svg">
<path d="M9.63127 66.2323C9.05627 65.6746 8.72085 64.9903 8.62502 64.1791C8.52919 63.368 8.74481 62.6076 9.2719 61.8979L17.25 51.7844C16.0042 50.3649 15.0938 48.8061 14.5188 47.1078C13.9438 45.4095 13.6563 43.5972 13.6563 41.6708C13.6563 38.6291 14.3391 35.334 15.7047 31.7854C17.0703 28.2368 19.1667 24.8276 21.9938 21.5578C24.8209 18.288 28.3906 15.335 32.7031 12.6989C37.0156 10.0628 42.1427 8.16179 48.0844 6.99581C49.3782 6.74234 50.8157 6.55224 52.3969 6.4255C53.9782 6.29876 55.4157 6.1847 56.7094 6.08331C56.949 7.45206 57.1406 8.9729 57.2844 10.6458C57.4281 12.3187 57.5 13.8396 57.5 15.2083C57.5 22.1535 56.5417 28.2875 54.625 33.6104C52.7084 38.9333 50.3125 43.3818 47.4375 46.9557C44.5625 50.5297 41.4479 53.2291 38.0938 55.0541C34.7396 56.8791 31.625 57.7916 28.75 57.7916C27.5042 57.7916 26.2943 57.6142 25.1203 57.2594C23.9464 56.9045 22.7844 56.3722 21.6344 55.6625L13.7281 65.8521C13.249 66.4604 12.6141 66.8153 11.8235 66.9166C11.0328 67.018 10.3021 66.7899 9.63127 66.2323ZM22.9281 49.275L51.6063 12.5469C51.2229 12.5975 50.8156 12.6482 50.3844 12.6989C49.9531 12.7496 49.5459 12.8257 49.1625 12.9271C43.9396 13.9916 39.4474 15.6646 35.686 17.9458C31.9245 20.2271 28.8339 22.7491 26.4141 25.512C23.9943 28.2748 22.2214 31.0883 21.0953 33.9526C19.9693 36.8168 19.4063 39.3642 19.4063 41.5948C19.4063 43.217 19.7058 44.6491 20.3047 45.8911C20.9037 47.1331 21.7781 48.2611 22.9281 49.275Z" fill="#EFEFEF"/>
</svg>
