<svg width="100" height="100" viewBox="0 0 100 100" fill="none" xmlns="http://www.w3.org/2000/svg">
<path d="M14.5833 83.3334C12.9166 83.3334 11.4583 82.7084 10.2083 81.4584C8.95831 80.2084 8.33331 78.7501 8.33331 77.0834V22.9167C8.33331 21.2501 8.95831 19.7917 10.2083 18.5417C11.4583 17.2917 12.9166 16.6667 14.5833 16.6667H85.4167C87.0833 16.6667 88.5416 17.2917 89.7916 18.5417C91.0416 19.7917 91.6667 21.2501 91.6667 22.9167V77.0834C91.6667 78.7501 91.0416 80.2084 89.7916 81.4584C88.5416 82.7084 87.0833 83.3334 85.4167 83.3334H14.5833ZM50 51.8751L14.5833 28.6459V77.0834H85.4167V28.6459L50 51.8751ZM50 45.6251L85 22.9167H15.1041L50 45.6251ZM14.5833 28.6459V22.9167V28.6459V77.0834V28.6459Z" fill="#F66B0E"/>
</svg>
